<?xml version="1.0" encoding="utf-8"?>
<!-- Generator: Adobe Illustrator 23.0.3, SVG Export Plug-In . SVG Version: 6.00 Build 0)  -->
<svg version="1.1" id="Layer_1" xmlns="http://www.w3.org/2000/svg" xmlns:xlink="http://www.w3.org/1999/xlink" x="0px" y="0px"
	 viewBox="0 0 1168 552" style="enable-background:new 0 0 1168 552;" xml:space="preserve">
<style type="text/css">
	.st0{clip-path:url(#SVGID_2_);}
	.st1{enable-background:new    ;}
	.st2{fill:#FA4359;}
	.st3{fill:#626E76;}
	.st4{clip-path:url(#SVGID_4_);}
	.st5{fill:#FFFFFF;}
	.st6{clip-path:url(#SVGID_6_);}
	.st7{clip-path:url(#SVGID_8_);}
	.st8{clip-path:url(#SVGID_10_);}
	.st9{fill:none;stroke:#FFFFFF;stroke-linecap:square;stroke-miterlimit:10;}
	.st10{clip-path:url(#SVGID_12_);}
	.st11{clip-path:url(#SVGID_14_);}
	.st12{clip-path:url(#SVGID_16_);}
</style>
<g>
	<g id="Layer_1-2">
		<g>
			<defs>
				<rect id="SVGID_1_" x="332" y="193" width="505" height="118"/>
			</defs>
			<clipPath id="SVGID_2_">
				<use xlink:href="#SVGID_1_"  style="overflow:visible;"/>
			</clipPath>
			<g class="st0">
				<g class="st1">
					<path class="st2" d="M336.8,214.3c-0.1,0.3-0.3,0.5-0.4,0.7s-0.3,0.2-0.5,0.2c-0.2,0-0.3-0.1-0.5-0.2s-0.2-0.3-0.2-0.5
						c0-0.1,0-0.1,0-0.2s0-0.1,0.1-0.2l6.1-13.1c0.2-0.3,0.3-0.6,0.4-0.7s0.3-0.2,0.4-0.2c0.2,0,0.4,0.1,0.5,0.2s0.2,0.3,0.2,0.5
						c0,0.1,0,0.1,0,0.2s0,0.1-0.1,0.2L336.8,214.3z"/>
					<path class="st2" d="M353.9,214c-0.1,0-0.2,0-0.3-0.1s-0.1-0.2-0.1-0.4v-0.8c-0.4,0.5-0.9,0.9-1.5,1.1s-1.2,0.4-1.9,0.4
						c-1.2,0-2.3-0.4-3.1-1.3s-1.2-2-1.2-3.3c0-1.3,0.4-2.5,1.3-3.4s2-1.3,3.3-1.3c0.7,0,1.3,0.1,1.8,0.4s1,0.6,1.4,1v-3.7h-0.5
						c-0.6,0-0.9-0.1-1.1-0.2s-0.2-0.3-0.2-0.6c0-0.2,0.1-0.4,0.2-0.5s0.3-0.2,0.6-0.2h2c0.2,0,0.3,0,0.4,0.1s0.1,0.2,0.1,0.3v11
						h0.4c0.3,0,0.6,0.1,0.7,0.2s0.2,0.3,0.2,0.5c0,0.2-0.1,0.4-0.2,0.5s-0.3,0.2-0.5,0.2H353.9z M347.5,209.6
						c0,0.9,0.3,1.6,0.9,2.2s1.3,0.9,2.2,0.9c0.9,0,1.6-0.3,2.2-0.9s0.9-1.4,0.9-2.3c0-0.9-0.3-1.7-0.9-2.2s-1.3-0.9-2.2-0.9
						c-0.9,0-1.7,0.3-2.2,0.9S347.5,208.7,347.5,209.6z"/>
					<path class="st2" d="M368.1,209.5c0,1.4-0.5,2.5-1.4,3.4s-2.2,1.3-3.7,1.3c-1.5,0-2.7-0.4-3.7-1.3s-1.4-2-1.4-3.4
						s0.5-2.5,1.4-3.4s2.2-1.3,3.7-1.3s2.7,0.4,3.7,1.3S368.1,208.1,368.1,209.5z M363,212.9c1,0,1.8-0.3,2.5-1s1-1.4,1-2.4
						s-0.3-1.8-1-2.4c-0.6-0.6-1.5-1-2.5-1s-1.8,0.3-2.5,1c-0.6,0.6-1,1.5-1,2.4c0,1,0.3,1.8,1,2.4C361.2,212.6,362,212.9,363,212.9
						z"/>
					<path class="st2" d="M377.9,205.6L377.9,205.6c0-0.3,0.1-0.4,0.2-0.5s0.3-0.2,0.6-0.2c0.3,0,0.5,0.1,0.6,0.2s0.2,0.5,0.2,1v1.8
						c0,0.2-0.1,0.4-0.2,0.5s-0.3,0.2-0.6,0.2c-0.2,0-0.3-0.1-0.5-0.2s-0.3-0.3-0.5-0.6c-0.3-0.5-0.7-0.9-1.1-1.2s-1-0.4-1.5-0.4
						c-1,0-1.8,0.3-2.5,0.9s-1,1.4-1,2.3c0,1,0.3,1.8,0.9,2.4s1.4,0.9,2.3,0.9c0.4,0,0.9-0.1,1.2-0.2s0.8-0.3,1.1-0.5
						c0.1-0.1,0.3-0.2,0.5-0.4c0.4-0.3,0.8-0.5,1-0.5c0.2,0,0.4,0.1,0.5,0.2s0.2,0.3,0.2,0.5c0,0.5-0.5,1-1.5,1.6s-2,0.8-3.1,0.8
						c-1.4,0-2.6-0.5-3.5-1.4s-1.4-2-1.4-3.4s0.5-2.5,1.4-3.4s2.1-1.4,3.5-1.4c0.5,0,1,0.1,1.5,0.2S377.4,205.3,377.9,205.6z"/>
					<path class="st2" d="M384.6,210.4c0,0.8,0.2,1.4,0.5,1.8s0.9,0.6,1.6,0.6c0.7,0,1.3-0.2,1.8-0.7s0.8-1,0.8-1.7v-4H388
						c-0.3,0-0.4-0.1-0.6-0.2s-0.2-0.3-0.2-0.5c0-0.2,0.1-0.4,0.2-0.5s0.3-0.2,0.6-0.2h2.1c0.2,0,0.4,0.1,0.5,0.2s0.2,0.4,0.2,0.8
						v6.7h0.4c0.3,0,0.5,0.1,0.7,0.2s0.2,0.3,0.2,0.5c0,0.2-0.1,0.4-0.2,0.5s-0.3,0.2-0.6,0.2h-1.5c-0.2,0-0.3,0-0.4-0.1
						s-0.1-0.2-0.1-0.3v-0.7c-0.6,0.5-1.2,0.8-1.6,1s-0.9,0.3-1.4,0.3c-1.1,0-1.9-0.3-2.4-0.9s-0.8-1.4-0.8-2.6v-4.4h-0.2
						c-0.4,0-0.7-0.1-0.9-0.2s-0.2-0.3-0.2-0.5c0-0.2,0.1-0.4,0.2-0.5s0.3-0.2,0.6-0.2h1.5c0.2,0,0.4,0,0.5,0.1s0.1,0.3,0.1,0.6
						V210.4z"/>
					<path class="st2" d="M402.6,208.6c0-0.9-0.1-1.5-0.2-1.9s-0.4-0.5-0.9-0.5c-0.5,0-0.9,0.2-1.1,0.6s-0.4,1-0.4,1.7v4.1h0.2
						c0.4,0,0.7,0,0.8,0.1s0.2,0.3,0.2,0.5c0,0.2-0.1,0.4-0.2,0.5s-0.3,0.2-0.5,0.2h-1.2c-0.3,0-0.5-0.1-0.6-0.2s-0.2-0.4-0.2-0.8
						v-0.3v-4.1v-0.8c0-0.5-0.1-0.9-0.3-1.2s-0.5-0.4-0.9-0.4c-0.3,0-0.6,0.1-0.8,0.3s-0.5,0.4-0.6,0.8v5.4h0.4c0.4,0,0.6,0,0.8,0.1
						s0.2,0.3,0.2,0.5c0,0.3-0.1,0.5-0.2,0.6c-0.1,0.1-0.3,0.2-0.6,0.2h-2.6c-0.3,0-0.4-0.1-0.6-0.2s-0.2-0.3-0.2-0.5
						c0-0.3,0.1-0.4,0.2-0.5c0.2-0.1,0.4-0.1,0.9-0.1h0.2v-6.3h-0.2c-0.5,0-0.8-0.1-0.9-0.2c-0.2-0.1-0.2-0.3-0.2-0.5
						c0-0.2,0.1-0.4,0.2-0.5s0.3-0.2,0.6-0.2h1.5c0.2,0,0.4,0,0.4,0.1s0.1,0.2,0.1,0.5c0.3-0.3,0.6-0.5,0.9-0.6s0.7-0.2,1-0.2
						c0.5,0,0.8,0.1,1.1,0.3s0.5,0.5,0.7,0.9c0.3-0.4,0.6-0.7,0.9-0.9c0.4-0.2,0.8-0.3,1.2-0.3c0.8,0,1.5,0.3,1.8,0.8
						s0.6,1.4,0.6,2.7v4.4h0.2c0.4,0,0.7,0,0.8,0.1c0.1,0.1,0.2,0.3,0.2,0.5c0,0.2-0.1,0.4-0.2,0.5s-0.3,0.2-0.5,0.2h-1.2
						c-0.3,0-0.5-0.1-0.6-0.2s-0.2-0.4-0.2-0.7V208.6z"/>
					<path class="st2" d="M407.7,209.9c0.1,0.9,0.4,1.7,1,2.2c0.6,0.5,1.4,0.8,2.4,0.8c0.8,0,1.6-0.2,2.5-0.6s1.4-0.6,1.6-0.6
						c0.2,0,0.4,0.1,0.5,0.2s0.2,0.3,0.2,0.5c0,0.2-0.1,0.4-0.2,0.5c-0.1,0.2-0.4,0.3-0.7,0.5c-0.7,0.3-1.3,0.6-2,0.7
						s-1.4,0.3-2.1,0.3c-1.5,0-2.7-0.4-3.6-1.3s-1.3-2-1.3-3.4c0-1.4,0.5-2.6,1.4-3.5s2.2-1.3,3.7-1.3c1.4,0,2.5,0.4,3.4,1.2
						s1.4,1.8,1.4,3c0,0.4-0.1,0.6-0.2,0.7s-0.6,0.2-1.2,0.2h-0.1H407.7z M407.8,208.6h6.4c-0.1-0.8-0.4-1.4-1-1.9s-1.2-0.7-2-0.7
						c-0.9,0-1.6,0.2-2.2,0.7S407.9,207.8,407.8,208.6z"/>
					<path class="st2" d="M419.4,212.6v-6.3h-0.2c-0.4,0-0.7-0.1-0.9-0.2s-0.2-0.3-0.2-0.5c0-0.2,0.1-0.4,0.2-0.5s0.4-0.2,0.7-0.2
						h0.5h0.9c0.2,0,0.3,0,0.4,0.1s0.1,0.2,0.1,0.3v0.7c0.5-0.4,0.9-0.8,1.4-1s0.9-0.3,1.5-0.3c1,0,1.8,0.3,2.3,0.9s0.8,1.5,0.8,2.5
						v4.4h0.5c0.3,0,0.6,0.1,0.7,0.2c0.1,0.1,0.2,0.3,0.2,0.5c0,0.3-0.1,0.4-0.2,0.5s-0.4,0.2-0.8,0.2h-2.2c-0.4,0-0.7,0-0.8-0.1
						c-0.1-0.1-0.2-0.3-0.2-0.6c0-0.3,0.1-0.4,0.2-0.5s0.4-0.1,0.8-0.1h0.3v-4.1c0-0.8-0.2-1.3-0.5-1.7c-0.3-0.4-0.8-0.6-1.5-0.6
						c-0.7,0-1.3,0.2-1.8,0.7s-0.8,1-0.8,1.7v4.1h0.3c0.4,0,0.7,0,0.8,0.1s0.2,0.3,0.2,0.5c0,0.3-0.1,0.5-0.2,0.6s-0.4,0.1-0.9,0.1
						h-1.8h-0.5c-0.3,0-0.5-0.1-0.6-0.2s-0.2-0.3-0.2-0.5c0-0.3,0.1-0.4,0.2-0.5s0.5-0.1,0.9-0.1H419.4z"/>
					<path class="st2" d="M437.7,205.5c0.3,0,0.6,0.1,0.7,0.2s0.2,0.3,0.2,0.5c0,0.2-0.1,0.4-0.2,0.5s-0.3,0.2-0.6,0.2h-4v3.3
						c0,1.1,0.1,1.8,0.4,2.1s0.8,0.5,1.4,0.5c0.6,0,1.3-0.2,2.1-0.5s1.3-0.5,1.5-0.5c0.2,0,0.3,0.1,0.5,0.2s0.2,0.3,0.2,0.5
						c0,0.2-0.1,0.4-0.2,0.6s-0.4,0.3-0.8,0.5c-0.6,0.3-1.2,0.4-1.7,0.6s-1,0.2-1.4,0.2c-0.8,0-1.4-0.1-1.9-0.4s-0.9-0.6-1.2-1.1
						c-0.1-0.2-0.2-0.5-0.3-0.8s-0.1-0.8-0.1-1.4v-0.3v-3.3h-1.7c-0.3,0-0.5-0.1-0.6-0.2s-0.2-0.3-0.2-0.5c0-0.3,0.1-0.4,0.3-0.5
						s0.5-0.1,1.1-0.1h1.1v-2V203c0-0.3,0.1-0.5,0.2-0.6s0.3-0.2,0.6-0.2c0.3,0,0.5,0.1,0.6,0.2s0.2,0.5,0.2,1.1v2H437.7z"/>
					<path class="st2" d="M442.8,213.3v-1.7c0-0.3,0.1-0.5,0.2-0.6s0.3-0.2,0.5-0.2c0.3,0,0.5,0.2,0.6,0.5c0.1,0.2,0.2,0.4,0.3,0.5
						c0.3,0.4,0.7,0.6,1.2,0.8s1.1,0.3,1.8,0.3c0.7,0,1.2-0.1,1.7-0.4s0.6-0.6,0.6-1.1c0-0.5-0.2-0.8-0.5-1s-0.9-0.3-1.7-0.3h-0.5
						c-1.3,0-2.3-0.2-3-0.7s-1-1.1-1-2c0-0.9,0.3-1.5,1-2s1.6-0.7,2.9-0.7c0.5,0,1,0.1,1.5,0.2s0.8,0.2,0.8,0.2
						c0.1,0,0.2-0.1,0.4-0.2s0.4-0.2,0.6-0.2c0.2,0,0.4,0.1,0.5,0.2s0.2,0.4,0.2,0.7v1.1c0,0.3-0.1,0.6-0.2,0.7s-0.3,0.2-0.5,0.2
						c-0.2,0-0.4-0.2-0.7-0.5c-0.2-0.2-0.4-0.4-0.5-0.5c-0.3-0.3-0.7-0.5-1.1-0.7s-0.8-0.2-1.4-0.2c-0.6,0-1.1,0.1-1.5,0.4
						s-0.6,0.6-0.6,1c0,0.4,0.2,0.7,0.6,0.9s1.2,0.3,2.5,0.3c1.4,0,2.3,0.3,3,0.7s0.9,1.1,0.9,2c0,0.9-0.3,1.6-1,2.1
						s-1.6,0.8-2.8,0.8c-0.4,0-0.8,0-1.2-0.1s-1-0.2-1.7-0.3c-0.2,0.1-0.4,0.3-0.6,0.3s-0.3,0.1-0.4,0.1c-0.2,0-0.4-0.1-0.5-0.2
						S442.8,213.6,442.8,213.3z"/>
					<path class="st2" d="M456.8,214.3c-0.1,0.3-0.3,0.5-0.4,0.7s-0.3,0.2-0.5,0.2c-0.2,0-0.3-0.1-0.5-0.2s-0.2-0.3-0.2-0.5
						c0-0.1,0-0.1,0-0.2s0-0.1,0.1-0.2l6.1-13.1c0.2-0.3,0.3-0.6,0.4-0.7s0.3-0.2,0.4-0.2c0.2,0,0.4,0.1,0.5,0.2s0.2,0.3,0.2,0.5
						c0,0.1,0,0.1,0,0.2s0,0.1-0.1,0.2L456.8,214.3z"/>
					<path class="st2" d="M473.3,212.8c-0.5,0.5-1.1,0.8-1.7,1.1s-1.3,0.4-1.9,0.4c-1,0-1.8-0.3-2.3-0.8s-0.9-1.2-0.9-2.1
						c0-1,0.4-1.8,1.2-2.4s1.9-0.8,3.3-0.8c0.4,0,0.8,0,1.1,0.1s0.8,0.1,1.2,0.2v-0.1c0-0.7-0.2-1.3-0.5-1.7s-0.9-0.5-1.7-0.5
						c-0.5,0-1.1,0.1-1.7,0.4s-1,0.4-1.2,0.4c-0.2,0-0.3-0.1-0.5-0.2s-0.2-0.3-0.2-0.6c0-0.4,0.4-0.7,1.1-1s1.6-0.4,2.8-0.4
						c1.1,0,2,0.3,2.6,0.9s0.9,1.4,0.9,2.6v4.4h0.5c0.5,0,0.8,0,0.9,0.1s0.2,0.3,0.2,0.5c0,0.2-0.1,0.4-0.2,0.5s-0.3,0.2-0.6,0.2
						H474c-0.2,0-0.3-0.1-0.4-0.2s-0.2-0.3-0.2-0.5L473.3,212.8z M473.2,209.7c-0.4-0.1-0.7-0.2-1-0.3s-0.7-0.1-1-0.1
						c-1,0-1.8,0.2-2.4,0.5s-0.9,0.8-0.9,1.4c0,0.4,0.2,0.8,0.5,1.1s0.8,0.4,1.4,0.4c0.8,0,1.6-0.2,2.3-0.6s1.1-0.9,1.1-1.4V209.7z"
						/>
					<path class="st2" d="M480.5,216.5h2.3c0.2,0,0.4,0.1,0.6,0.2s0.2,0.3,0.2,0.5c0,0.3-0.1,0.4-0.2,0.5s-0.3,0.2-0.6,0.2h-4.3
						c-0.3,0-0.5-0.1-0.6-0.2s-0.2-0.3-0.2-0.5c0-0.3,0.1-0.4,0.2-0.5s0.5-0.2,0.9-0.2h0.2v-10.1h-0.2c-0.4,0-0.8-0.1-0.9-0.2
						s-0.2-0.3-0.2-0.5c0-0.2,0.1-0.4,0.2-0.5s0.3-0.2,0.6-0.2h1.5c0.2,0,0.3,0,0.4,0.1s0.1,0.2,0.1,0.3v0.9c0.4-0.5,0.9-0.8,1.5-1
						s1.1-0.3,1.7-0.3c1.3,0,2.4,0.4,3.3,1.3s1.3,2,1.3,3.3c0,1.3-0.4,2.3-1.2,3.2s-1.9,1.2-3.2,1.2c-0.7,0-1.3-0.1-1.9-0.4
						s-1.1-0.6-1.5-1V216.5z M483.5,212.6c0.9,0,1.6-0.3,2.2-0.9s0.9-1.3,0.9-2.2c0-0.9-0.3-1.6-0.9-2.2s-1.3-0.9-2.2-0.9
						s-1.6,0.3-2.2,0.9s-0.9,1.3-0.9,2.2c0,0.9,0.3,1.6,0.9,2.2S482.6,212.6,483.5,212.6z"/>
					<path class="st2" d="M492.5,216.5h2.3c0.2,0,0.4,0.1,0.6,0.2s0.2,0.3,0.2,0.5c0,0.3-0.1,0.4-0.2,0.5s-0.3,0.2-0.6,0.2h-4.3
						c-0.3,0-0.5-0.1-0.6-0.2s-0.2-0.3-0.2-0.5c0-0.3,0.1-0.4,0.2-0.5s0.5-0.2,0.9-0.2h0.2v-10.1h-0.2c-0.4,0-0.8-0.1-0.9-0.2
						s-0.2-0.3-0.2-0.5c0-0.2,0.1-0.4,0.2-0.5s0.3-0.2,0.6-0.2h1.5c0.2,0,0.3,0,0.4,0.1s0.1,0.2,0.1,0.3v0.9c0.4-0.5,0.9-0.8,1.5-1
						s1.1-0.3,1.7-0.3c1.3,0,2.4,0.4,3.3,1.3s1.3,2,1.3,3.3c0,1.3-0.4,2.3-1.2,3.2s-1.9,1.2-3.2,1.2c-0.7,0-1.3-0.1-1.9-0.4
						s-1.1-0.6-1.5-1V216.5z M495.5,212.6c0.9,0,1.6-0.3,2.2-0.9s0.9-1.3,0.9-2.2c0-0.9-0.3-1.6-0.9-2.2s-1.3-0.9-2.2-0.9
						s-1.6,0.3-2.2,0.9s-0.9,1.3-0.9,2.2c0,0.9,0.3,1.6,0.9,2.2S494.6,212.6,495.5,212.6z"/>
					<path class="st2" d="M505.1,212.4c0-0.5,0.2-0.9,0.5-1.2s0.8-0.5,1.4-0.5c0.6,0,1,0.2,1.4,0.5s0.5,0.7,0.5,1.3
						s-0.2,0.9-0.5,1.3s-0.8,0.5-1.4,0.5s-1-0.2-1.4-0.5S505.1,212.9,505.1,212.4z"/>
					<path class="st2" d="M522,213.4c0,0.8,0,1.5-0.1,1.9s-0.3,0.8-0.5,1.1c-0.4,0.5-0.9,0.8-1.5,1.1c-0.7,0.3-1.4,0.4-2.3,0.4
						c-0.7,0-1.3-0.1-1.6-0.2s-0.5-0.4-0.5-0.7c0-0.2,0.1-0.4,0.2-0.5s0.4-0.2,0.6-0.2c0.2,0,0.4,0,0.8,0.1s0.7,0.1,0.8,0.1
						c1,0,1.6-0.2,2-0.7c0.4-0.4,0.6-1.2,0.6-2.3v-7h-3.8c-0.6,0-1,0-1.2-0.2c-0.2-0.1-0.2-0.3-0.2-0.5c0-0.2,0.1-0.4,0.2-0.5
						s0.3-0.2,0.6-0.2h5.4c0.2,0,0.3,0,0.4,0.1s0.2,0.2,0.2,0.3V213.4z M519.4,202.2c0-0.7,0.1-1.1,0.2-1.3s0.4-0.3,0.8-0.3
						c0.4,0,0.7,0.1,0.8,0.2s0.2,0.5,0.2,1.1c0,0.6-0.1,0.9-0.2,1s-0.4,0.2-0.8,0.2c-0.4,0-0.7-0.1-0.8-0.2S519.4,202.5,519.4,202.2
						z"/>
					<path class="st2" d="M526.8,213.3v-1.7c0-0.3,0.1-0.5,0.2-0.6s0.3-0.2,0.5-0.2c0.3,0,0.5,0.2,0.6,0.5c0.1,0.2,0.2,0.4,0.3,0.5
						c0.3,0.4,0.7,0.6,1.2,0.8s1.1,0.3,1.8,0.3c0.7,0,1.2-0.1,1.7-0.4s0.6-0.6,0.6-1.1c0-0.5-0.2-0.8-0.5-1s-0.9-0.3-1.7-0.3h-0.5
						c-1.3,0-2.3-0.2-3-0.7s-1-1.1-1-2c0-0.9,0.3-1.5,1-2s1.6-0.7,2.9-0.7c0.5,0,1,0.1,1.5,0.2s0.8,0.2,0.8,0.2
						c0.1,0,0.2-0.1,0.4-0.2s0.4-0.2,0.6-0.2c0.2,0,0.4,0.1,0.5,0.2s0.2,0.4,0.2,0.7v1.1c0,0.3-0.1,0.6-0.2,0.7s-0.3,0.2-0.5,0.2
						c-0.2,0-0.4-0.2-0.7-0.5c-0.2-0.2-0.4-0.4-0.5-0.5c-0.3-0.3-0.7-0.5-1.1-0.7s-0.8-0.2-1.4-0.2c-0.6,0-1.1,0.1-1.5,0.4
						s-0.6,0.6-0.6,1c0,0.4,0.2,0.7,0.6,0.9s1.2,0.3,2.5,0.3c1.4,0,2.3,0.3,3,0.7s0.9,1.1,0.9,2c0,0.9-0.3,1.6-1,2.1
						s-1.6,0.8-2.8,0.8c-0.4,0-0.8,0-1.2-0.1s-1-0.2-1.7-0.3c-0.2,0.1-0.4,0.3-0.6,0.3s-0.3,0.1-0.4,0.1c-0.2,0-0.4-0.1-0.5-0.2
						S526.8,213.6,526.8,213.3z"/>
					<path class="st2" d="M541.1,207c0-0.5,0.2-0.9,0.5-1.2s0.8-0.5,1.4-0.5c0.6,0,1,0.2,1.4,0.5s0.5,0.7,0.5,1.3s-0.2,0.9-0.5,1.3
						s-0.8,0.5-1.4,0.5s-1-0.2-1.4-0.5S541.1,207.5,541.1,207z M541.1,212.4c0-0.5,0.2-0.9,0.5-1.2s0.8-0.5,1.4-0.5
						c0.6,0,1,0.2,1.4,0.5s0.5,0.7,0.5,1.3s-0.2,0.9-0.5,1.3s-0.8,0.5-1.4,0.5s-1-0.2-1.4-0.5S541.1,212.9,541.1,212.4z"/>
					<path class="st2" d="M552.7,203.5c-0.1,0-0.1,0-0.2,0s-0.1,0-0.1,0c-0.2,0-0.4-0.1-0.5-0.2s-0.2-0.3-0.2-0.5
						c0-0.2,0.1-0.3,0.2-0.4s0.3-0.2,0.5-0.3l2.9-0.8c0.1,0,0.1,0,0.2,0s0.1,0,0.2,0c0.1,0,0.2,0.1,0.3,0.2s0.1,0.3,0.1,0.5v10.6
						h1.6c0.6,0,0.9,0,1.1,0.1s0.2,0.3,0.2,0.5c0,0.2-0.1,0.4-0.2,0.5s-0.3,0.2-0.6,0.2h-5.8c-0.3,0-0.5-0.1-0.6-0.2
						s-0.2-0.3-0.2-0.5c0-0.3,0.1-0.4,0.2-0.5s0.5-0.1,1.1-0.1h1.6v-9.5L552.7,203.5z"/>
				</g>
				<g class="st1">
					<path class="st3" d="M342.6,239.6c0-0.9-0.1-1.5-0.2-1.9s-0.4-0.5-0.9-0.5c-0.5,0-0.9,0.2-1.1,0.6s-0.4,1-0.4,1.7v4.1h0.2
						c0.4,0,0.7,0,0.8,0.1s0.2,0.3,0.2,0.5c0,0.2-0.1,0.4-0.2,0.5s-0.3,0.2-0.5,0.2h-1.2c-0.3,0-0.5-0.1-0.6-0.2s-0.2-0.4-0.2-0.8
						v-0.3v-4.1v-0.8c0-0.5-0.1-0.9-0.3-1.2s-0.5-0.4-0.9-0.4c-0.3,0-0.6,0.1-0.8,0.3s-0.5,0.4-0.6,0.8v5.4h0.4c0.4,0,0.6,0,0.8,0.1
						s0.2,0.3,0.2,0.5c0,0.3-0.1,0.5-0.2,0.6c-0.1,0.1-0.3,0.2-0.6,0.2h-2.6c-0.3,0-0.4-0.1-0.6-0.2s-0.2-0.3-0.2-0.5
						c0-0.3,0.1-0.4,0.2-0.5c0.2-0.1,0.4-0.1,0.9-0.1h0.2v-6.3h-0.2c-0.5,0-0.8-0.1-0.9-0.2c-0.2-0.1-0.2-0.3-0.2-0.5
						c0-0.2,0.1-0.4,0.2-0.5s0.3-0.2,0.6-0.2h1.5c0.2,0,0.4,0,0.4,0.1s0.1,0.2,0.1,0.5c0.3-0.3,0.6-0.5,0.9-0.6s0.7-0.2,1-0.2
						c0.5,0,0.8,0.1,1.1,0.3s0.5,0.5,0.7,0.9c0.3-0.4,0.6-0.7,0.9-0.9c0.4-0.2,0.8-0.3,1.2-0.3c0.8,0,1.5,0.3,1.8,0.8
						s0.6,1.4,0.6,2.7v4.4h0.2c0.4,0,0.7,0,0.8,0.1c0.1,0.1,0.2,0.3,0.2,0.5c0,0.2-0.1,0.4-0.2,0.5s-0.3,0.2-0.5,0.2h-1.2
						c-0.3,0-0.5-0.1-0.6-0.2s-0.2-0.4-0.2-0.7V239.6z"/>
					<path class="st3" d="M350.3,247.5h0.4c0.5,0,0.8,0.1,1,0.2s0.3,0.3,0.3,0.6c0,0.2-0.1,0.4-0.2,0.5s-0.3,0.2-0.6,0.2h-4.5
						c-0.3,0-0.5-0.1-0.6-0.2s-0.2-0.3-0.2-0.5c0-0.2,0.1-0.4,0.2-0.5s0.3-0.2,0.6-0.2h2.1l1.6-3.1l-3.6-7c-0.4,0-0.7-0.1-0.9-0.2
						s-0.2-0.3-0.2-0.5c0-0.2,0.1-0.4,0.2-0.5s0.3-0.2,0.6-0.2h2.7c0.4,0,0.6,0,0.7,0.2s0.2,0.3,0.2,0.5c0,0.3-0.1,0.4-0.2,0.5
						s-0.5,0.2-0.9,0.2h-0.4l2.6,5.4l2.7-5.4h-0.4c-0.4,0-0.8-0.1-0.9-0.2s-0.3-0.3-0.3-0.5c0-0.3,0.1-0.4,0.2-0.5s0.4-0.2,0.7-0.2
						h2.4c0.3,0,0.5,0.1,0.6,0.2s0.2,0.3,0.2,0.5c0,0.2-0.1,0.4-0.2,0.5s-0.4,0.2-0.8,0.2L350.3,247.5z"/>
					<path class="st3" d="M358.2,234.8H358c-0.3,0-0.6-0.1-0.7-0.2s-0.2-0.3-0.2-0.5c0-0.2,0.1-0.4,0.2-0.5s0.3-0.2,0.5-0.2h3
						c0.4,0,0.6,0.1,0.8,0.2s0.2,0.3,0.2,0.5c0,0.2-0.1,0.4-0.2,0.5s-0.4,0.2-0.7,0.2h-1.1l3.3,8.5l3.2-8.5H365
						c-0.3,0-0.5-0.1-0.7-0.2s-0.2-0.3-0.2-0.5c0-0.3,0.1-0.4,0.2-0.5s0.4-0.2,0.8-0.2h3.1c0.2,0,0.4,0.1,0.5,0.2s0.2,0.3,0.2,0.5
						c0,0.3-0.1,0.4-0.2,0.5s-0.4,0.2-0.7,0.2h-0.1l-3.5,9.2c-0.2,0.5-0.4,0.8-0.5,0.9s-0.3,0.2-0.4,0.2h-0.6c-0.4,0-0.8-0.3-1-1
						l0-0.1L358.2,234.8z"/>
					<path class="st3" d="M377.2,243.8c-0.5,0.5-1.1,0.8-1.7,1.1s-1.3,0.4-1.9,0.4c-1,0-1.8-0.3-2.3-0.8s-0.9-1.2-0.9-2.1
						c0-1,0.4-1.8,1.2-2.4s1.9-0.8,3.3-0.8c0.4,0,0.8,0,1.1,0.1s0.8,0.1,1.2,0.2v-0.1c0-0.7-0.2-1.3-0.5-1.7s-0.9-0.5-1.7-0.5
						c-0.5,0-1.1,0.1-1.7,0.4s-1,0.4-1.2,0.4c-0.2,0-0.3-0.1-0.5-0.2s-0.2-0.3-0.2-0.6c0-0.4,0.4-0.7,1.1-1s1.6-0.4,2.8-0.4
						c1.1,0,2,0.3,2.6,0.9s0.9,1.4,0.9,2.6v4.4h0.5c0.5,0,0.8,0,0.9,0.1s0.2,0.3,0.2,0.5c0,0.2-0.1,0.4-0.2,0.5s-0.3,0.2-0.6,0.2
						H378c-0.2,0-0.3-0.1-0.4-0.2s-0.2-0.3-0.2-0.5L377.2,243.8z M377.2,240.7c-0.4-0.1-0.7-0.2-1-0.3s-0.7-0.1-1-0.1
						c-1,0-1.8,0.2-2.4,0.5s-0.9,0.8-0.9,1.4c0,0.4,0.2,0.8,0.5,1.1s0.8,0.4,1.4,0.4c0.8,0,1.6-0.2,2.3-0.6s1.1-0.9,1.1-1.4V240.7z"
						/>
					<path class="st3" d="M386,243.6h3.2c0.3,0,0.4,0.1,0.6,0.2s0.2,0.3,0.2,0.5c0,0.3-0.1,0.5-0.2,0.6s-0.3,0.2-0.6,0.2h-6.4
						c-0.3,0-0.4-0.1-0.6-0.2s-0.2-0.3-0.2-0.5c0-0.2,0.1-0.4,0.2-0.5s0.3-0.2,0.6-0.2h1.7v-6.3h-0.7c-0.6,0-1,0-1.2-0.2
						c-0.2-0.1-0.2-0.3-0.2-0.5c0-0.2,0.1-0.4,0.2-0.5s0.3-0.2,0.6-0.2h2.2c0.2,0,0.3,0,0.4,0.1s0.1,0.2,0.1,0.3v1.7
						c0.6-0.8,1.3-1.4,1.9-1.7s1.4-0.6,2.2-0.6c0.6,0,1,0.1,1.4,0.3c0.4,0.2,0.5,0.5,0.5,0.9c0,0.2-0.1,0.5-0.3,0.6
						s-0.4,0.3-0.6,0.3c-0.1,0-0.4-0.1-0.8-0.3s-0.7-0.3-1-0.3c-0.5,0-1,0.2-1.6,0.5s-1.2,0.9-1.9,1.7V243.6z"/>
					<path class="st3" d="M399.9,243.6h3.1c0.3,0,0.4,0.1,0.6,0.2s0.2,0.3,0.2,0.5c0,0.3-0.1,0.5-0.2,0.6s-0.3,0.2-0.6,0.2h-7.6
						c-0.3,0-0.5-0.1-0.6-0.2s-0.2-0.3-0.2-0.5c0-0.2,0.1-0.4,0.2-0.5s0.3-0.2,0.6-0.2h3v-6.3h-1.9c-0.3,0-0.5-0.1-0.6-0.2
						c-0.1-0.1-0.2-0.3-0.2-0.5s0.1-0.4,0.2-0.5s0.3-0.2,0.6-0.2h2.9c0.2,0,0.3,0,0.4,0.1s0.2,0.2,0.2,0.3V243.6z M398.1,233.2
						c0-0.7,0.1-1.1,0.2-1.3s0.4-0.3,0.8-0.3c0.4,0,0.7,0.1,0.8,0.2s0.2,0.5,0.2,1.1c0,0.6-0.1,0.9-0.2,1s-0.4,0.2-0.8,0.2
						c-0.4,0-0.7-0.1-0.8-0.2S398.1,233.6,398.1,233.2z"/>
					<path class="st3" d="M413.3,243.8c-0.5,0.5-1.1,0.8-1.7,1.1s-1.3,0.4-1.9,0.4c-1,0-1.8-0.3-2.3-0.8s-0.9-1.2-0.9-2.1
						c0-1,0.4-1.8,1.2-2.4s1.9-0.8,3.3-0.8c0.4,0,0.8,0,1.1,0.1s0.8,0.1,1.2,0.2v-0.1c0-0.7-0.2-1.3-0.5-1.7s-0.9-0.5-1.7-0.5
						c-0.5,0-1.1,0.1-1.7,0.4s-1,0.4-1.2,0.4c-0.2,0-0.3-0.1-0.5-0.2s-0.2-0.3-0.2-0.6c0-0.4,0.4-0.7,1.1-1s1.6-0.4,2.8-0.4
						c1.1,0,2,0.3,2.6,0.9s0.9,1.4,0.9,2.6v4.4h0.5c0.5,0,0.8,0,0.9,0.1s0.2,0.3,0.2,0.5c0,0.2-0.1,0.4-0.2,0.5s-0.3,0.2-0.6,0.2
						H414c-0.2,0-0.3-0.1-0.4-0.2s-0.2-0.3-0.2-0.5L413.3,243.8z M413.2,240.7c-0.4-0.1-0.7-0.2-1-0.3s-0.7-0.1-1-0.1
						c-1,0-1.8,0.2-2.4,0.5s-0.9,0.8-0.9,1.4c0,0.4,0.2,0.8,0.5,1.1s0.8,0.4,1.4,0.4c0.8,0,1.6-0.2,2.3-0.6s1.1-0.9,1.1-1.4V240.7z"
						/>
					<path class="st3" d="M420.5,237.4c0.4-0.5,0.8-0.8,1.4-1s1.2-0.4,1.9-0.4c1.3,0,2.4,0.4,3.3,1.3s1.3,2,1.3,3.3
						c0,1.3-0.4,2.4-1.3,3.3s-2,1.3-3.3,1.3c-0.7,0-1.3-0.1-1.8-0.4s-0.9-0.6-1.2-1.1v0.8c0,0.2,0,0.3-0.1,0.4s-0.2,0.1-0.3,0.1
						h-1.8c-0.3,0-0.4-0.1-0.6-0.2s-0.2-0.3-0.2-0.5c0-0.3,0.1-0.4,0.2-0.5s0.4-0.1,0.9-0.1h0.2v-10h-0.2c-0.4,0-0.7-0.1-0.9-0.2
						s-0.2-0.3-0.2-0.5c0-0.2,0.1-0.4,0.2-0.5s0.3-0.2,0.6-0.2h1.5c0.2,0,0.3,0,0.4,0.1s0.1,0.2,0.1,0.3V237.4z M423.5,243.6
						c0.9,0,1.7-0.3,2.2-0.9s0.9-1.3,0.9-2.3c0-0.9-0.3-1.7-0.9-2.2s-1.3-0.9-2.2-0.9c-0.9,0-1.6,0.3-2.2,0.9s-0.9,1.3-0.9,2.2
						s0.3,1.7,0.9,2.2S422.6,243.6,423.5,243.6z"/>
					<path class="st3" d="M434.4,233.6h-1.7c-0.6,0-1-0.1-1.2-0.2s-0.2-0.3-0.2-0.6c0-0.2,0.1-0.4,0.2-0.5s0.3-0.2,0.6-0.2h3.2
						c0.2,0,0.3,0,0.4,0.1s0.1,0.2,0.1,0.3v11h3.1c0.2,0,0.4,0.1,0.5,0.2s0.2,0.3,0.2,0.5c0,0.3-0.1,0.5-0.2,0.6s-0.3,0.2-0.6,0.2
						h-7.2c-0.3,0-0.4-0.1-0.6-0.2s-0.2-0.3-0.2-0.5c0-0.2,0.1-0.4,0.2-0.5s0.3-0.2,0.6-0.2h2.7V233.6z"/>
					<path class="st3" d="M443.7,240.9c0.1,0.9,0.4,1.7,1,2.2c0.6,0.5,1.4,0.8,2.4,0.8c0.8,0,1.6-0.2,2.5-0.6s1.4-0.6,1.6-0.6
						c0.2,0,0.4,0.1,0.5,0.2s0.2,0.3,0.2,0.5c0,0.2-0.1,0.4-0.2,0.5c-0.1,0.2-0.4,0.3-0.7,0.5c-0.7,0.3-1.3,0.6-2,0.7
						s-1.4,0.3-2.1,0.3c-1.5,0-2.7-0.4-3.6-1.3s-1.3-2-1.3-3.4c0-1.4,0.5-2.6,1.4-3.5s2.2-1.3,3.7-1.3c1.4,0,2.5,0.4,3.4,1.2
						s1.4,1.8,1.4,3c0,0.4-0.1,0.6-0.2,0.7s-0.6,0.2-1.2,0.2h-0.1H443.7z M443.8,239.6h6.4c-0.1-0.8-0.4-1.4-1-1.9s-1.2-0.7-2-0.7
						c-0.9,0-1.6,0.2-2.2,0.7S444,238.8,443.8,239.6z"/>
					<path class="st3" d="M457.8,242.6c0.1-0.2,0.1-0.4,0.2-0.4s0.2-0.1,0.4-0.1h2c0.1,0,0.2,0,0.2,0.1s0.1,0.1,0.1,0.1
						c0,0,0,0.1,0,0.1s0,0.1-0.1,0.1l-2.5,5.2c-0.1,0.1-0.1,0.2-0.2,0.2s-0.1,0.1-0.2,0.1c-0.1,0-0.1,0-0.1,0s-0.1,0-0.1,0l-0.6-0.2
						c-0.1,0-0.2-0.1-0.2-0.1s-0.1-0.1-0.1-0.2c0,0,0-0.1,0-0.1s0-0.1,0-0.2L457.8,242.6z M457,238c0-0.5,0.2-0.9,0.5-1.2
						s0.8-0.5,1.4-0.5c0.6,0,1,0.2,1.4,0.5s0.5,0.7,0.5,1.3s-0.2,0.9-0.5,1.3s-0.8,0.5-1.4,0.5c-0.6,0-1-0.2-1.4-0.5
						S457,238.5,457,238z"/>
				</g>
				<g class="st1">
					<path class="st3" d="M339.7,262.7l2.7,3.4c0,0.1,0.1,0.1,0.1,0.2s0,0.1,0,0.2c0,0.1-0.1,0.3-0.2,0.4s-0.2,0.1-0.3,0.1
						c-0.1,0-0.1,0-0.2,0s-0.1,0-0.1-0.1l-2.7-2.7l-2.7,2.7c0,0-0.1,0.1-0.1,0.1s-0.1,0-0.1,0c-0.1,0-0.2,0-0.3-0.1
						s-0.2-0.2-0.2-0.4c0-0.1,0-0.1,0-0.2s0-0.1,0.1-0.2l2.7-3.4c0.1-0.1,0.1-0.1,0.2-0.2s0.2-0.1,0.4-0.1c0.1,0,0.3,0,0.4,0.1
						S339.6,262.6,339.7,262.7z"/>
				</g>
				<g class="st1">
					<path class="st2" d="M336.8,305.6h0.7c0.4,0,0.6,0.1,0.8,0.2s0.2,0.3,0.2,0.5c0,0.3-0.1,0.4-0.2,0.5s-0.4,0.2-0.8,0.2h-3.3
						c-0.2,0-0.4-0.1-0.5-0.2s-0.2-0.3-0.2-0.5c0-0.2,0.1-0.4,0.2-0.5s0.3-0.2,0.6-0.2h0.3h0.6v-8.9h-0.6c-0.5,0-0.8,0-0.9-0.1
						s-0.2-0.3-0.2-0.5c0-0.2,0.1-0.4,0.2-0.5s0.3-0.2,0.5-0.2h4.1c1,0,1.7,0,2.2,0.1s0.9,0.3,1.2,0.5c0.4,0.3,0.8,0.7,1,1.2
						s0.4,1,0.4,1.6c0,0.7-0.2,1.4-0.7,1.9s-1.1,0.9-1.9,1.1c0.2,0.1,0.3,0.2,0.5,0.3s0.3,0.3,0.4,0.5l2,3h0.3
						c0.4,0,0.6,0.1,0.8,0.2s0.2,0.3,0.2,0.5c0,0.2-0.1,0.4-0.2,0.5s-0.3,0.2-0.5,0.2H343c-0.3,0-0.6-0.2-0.9-0.7
						c0,0-0.1-0.1-0.1-0.1l-1.9-2.8c-0.4-0.6-0.7-1-1-1.1s-0.6-0.3-1-0.3h-1.3V305.6z M336.8,296.7v3.9h2c0.9,0,1.6-0.2,2.1-0.5
						s0.7-0.8,0.7-1.5c0-0.7-0.2-1.2-0.7-1.5s-1.1-0.5-2-0.5H336.8z"/>
					<path class="st2" d="M347.7,302.9c0.1,0.9,0.4,1.7,1,2.2c0.6,0.5,1.4,0.8,2.4,0.8c0.8,0,1.6-0.2,2.5-0.6s1.4-0.6,1.6-0.6
						c0.2,0,0.4,0.1,0.5,0.2s0.2,0.3,0.2,0.5c0,0.2-0.1,0.4-0.2,0.5c-0.1,0.2-0.4,0.3-0.7,0.5c-0.7,0.3-1.3,0.6-2,0.7
						s-1.4,0.3-2.1,0.3c-1.5,0-2.7-0.4-3.6-1.3s-1.3-2-1.3-3.4c0-1.4,0.5-2.6,1.4-3.5s2.2-1.3,3.7-1.3c1.4,0,2.5,0.4,3.4,1.2
						s1.4,1.8,1.4,3c0,0.4-0.1,0.6-0.2,0.7s-0.6,0.2-1.2,0.2h-0.1H347.7z M347.7,301.6h6.4c-0.1-0.8-0.4-1.4-1-1.9s-1.2-0.7-2-0.7
						c-0.9,0-1.6,0.2-2.2,0.7S347.9,300.8,347.7,301.6z"/>
					<path class="st2" d="M366,305.6c0.3,0,0.5,0.1,0.6,0.2s0.2,0.3,0.2,0.5c0,0.2-0.1,0.4-0.2,0.5s-0.3,0.2-0.6,0.2h-6.4
						c-0.3,0-0.5-0.1-0.6-0.2s-0.2-0.3-0.2-0.5c0-0.2,0.1-0.4,0.2-0.5s0.3-0.2,0.6-0.2h1.7v-6h-1.6c-0.3,0-0.5-0.1-0.6-0.2
						s-0.2-0.3-0.2-0.5c0-0.2,0.1-0.4,0.2-0.5s0.3-0.2,0.6-0.2h1.5v-0.7c0-1.2,0.3-2,1-2.6s1.8-0.8,3.3-0.8c0.7,0,1.3,0.1,1.6,0.2
						s0.5,0.4,0.5,0.8c0,0.2-0.1,0.4-0.2,0.5s-0.3,0.2-0.6,0.2c-0.1,0-0.4,0-0.8-0.1s-0.8-0.1-1.1-0.1c-0.7,0-1.3,0.2-1.6,0.5
						s-0.5,0.8-0.5,1.5v0.6h3.5c0.3,0,0.5,0.1,0.6,0.2s0.2,0.3,0.2,0.5c0,0.2-0.1,0.4-0.2,0.5s-0.3,0.2-0.6,0.2h-3.4v6H366z"/>
					<path class="st2" d="M371.7,302.9c0.1,0.9,0.4,1.7,1,2.2c0.6,0.5,1.4,0.8,2.4,0.8c0.8,0,1.6-0.2,2.5-0.6s1.4-0.6,1.6-0.6
						c0.2,0,0.4,0.1,0.5,0.2s0.2,0.3,0.2,0.5c0,0.2-0.1,0.4-0.2,0.5c-0.1,0.2-0.4,0.3-0.7,0.5c-0.7,0.3-1.3,0.6-2,0.7
						s-1.4,0.3-2.1,0.3c-1.5,0-2.7-0.4-3.6-1.3s-1.3-2-1.3-3.4c0-1.4,0.5-2.6,1.4-3.5s2.2-1.3,3.7-1.3c1.4,0,2.5,0.4,3.4,1.2
						s1.4,1.8,1.4,3c0,0.4-0.1,0.6-0.2,0.7s-0.6,0.2-1.2,0.2h-0.1H371.7z M371.8,301.6h6.4c-0.1-0.8-0.4-1.4-1-1.9s-1.2-0.7-2-0.7
						c-0.9,0-1.6,0.2-2.2,0.7S371.9,300.8,371.8,301.6z"/>
					<path class="st2" d="M386,305.6h3.2c0.3,0,0.4,0.1,0.6,0.2s0.2,0.3,0.2,0.5c0,0.3-0.1,0.5-0.2,0.6s-0.3,0.2-0.6,0.2h-6.4
						c-0.3,0-0.4-0.1-0.6-0.2s-0.2-0.3-0.2-0.5c0-0.2,0.1-0.4,0.2-0.5s0.3-0.2,0.6-0.2h1.7v-6.3h-0.7c-0.6,0-1,0-1.2-0.2
						c-0.2-0.1-0.2-0.3-0.2-0.5c0-0.2,0.1-0.4,0.2-0.5s0.3-0.2,0.6-0.2h2.2c0.2,0,0.3,0,0.4,0.1s0.1,0.2,0.1,0.3v1.7
						c0.6-0.8,1.3-1.4,1.9-1.7s1.4-0.6,2.2-0.6c0.6,0,1,0.1,1.4,0.3c0.4,0.2,0.5,0.5,0.5,0.9c0,0.2-0.1,0.5-0.3,0.6
						s-0.4,0.3-0.6,0.3c-0.1,0-0.4-0.1-0.8-0.3s-0.7-0.3-1-0.3c-0.5,0-1,0.2-1.6,0.5s-1.2,0.9-1.9,1.7V305.6z"/>
					<path class="st2" d="M395.7,302.9c0.1,0.9,0.4,1.7,1,2.2c0.6,0.5,1.4,0.8,2.4,0.8c0.8,0,1.6-0.2,2.5-0.6s1.4-0.6,1.6-0.6
						c0.2,0,0.4,0.1,0.5,0.2s0.2,0.3,0.2,0.5c0,0.2-0.1,0.4-0.2,0.5c-0.1,0.2-0.4,0.3-0.7,0.5c-0.7,0.3-1.3,0.6-2,0.7
						s-1.4,0.3-2.1,0.3c-1.5,0-2.7-0.4-3.6-1.3s-1.3-2-1.3-3.4c0-1.4,0.5-2.6,1.4-3.5s2.2-1.3,3.7-1.3c1.4,0,2.5,0.4,3.4,1.2
						s1.4,1.8,1.4,3c0,0.4-0.1,0.6-0.2,0.7s-0.6,0.2-1.2,0.2h-0.1H395.7z M395.8,301.6h6.4c-0.1-0.8-0.4-1.4-1-1.9s-1.2-0.7-2-0.7
						c-0.9,0-1.6,0.2-2.2,0.7S395.9,300.8,395.8,301.6z"/>
					<path class="st2" d="M407.4,305.6v-6.3h-0.2c-0.4,0-0.7-0.1-0.9-0.2s-0.2-0.3-0.2-0.5c0-0.2,0.1-0.4,0.2-0.5s0.4-0.2,0.7-0.2
						h0.5h0.9c0.2,0,0.3,0,0.4,0.1s0.1,0.2,0.1,0.3v0.7c0.5-0.4,0.9-0.8,1.4-1s0.9-0.3,1.5-0.3c1,0,1.8,0.3,2.3,0.9s0.8,1.5,0.8,2.5
						v4.4h0.5c0.3,0,0.6,0.1,0.7,0.2c0.1,0.1,0.2,0.3,0.2,0.5c0,0.3-0.1,0.4-0.2,0.5s-0.4,0.2-0.8,0.2h-2.2c-0.4,0-0.7,0-0.8-0.1
						c-0.1-0.1-0.2-0.3-0.2-0.6c0-0.3,0.1-0.4,0.2-0.5s0.4-0.1,0.8-0.1h0.3v-4.1c0-0.8-0.2-1.3-0.5-1.7c-0.3-0.4-0.8-0.6-1.5-0.6
						c-0.7,0-1.3,0.2-1.8,0.7s-0.8,1-0.8,1.7v4.1h0.3c0.4,0,0.7,0,0.8,0.1s0.2,0.3,0.2,0.5c0,0.3-0.1,0.5-0.2,0.6s-0.4,0.1-0.9,0.1
						h-1.8h-0.5c-0.3,0-0.5-0.1-0.6-0.2s-0.2-0.3-0.2-0.5c0-0.3,0.1-0.4,0.2-0.5s0.5-0.1,0.9-0.1H407.4z"/>
					<path class="st2" d="M425.9,298.6L425.9,298.6c0-0.3,0.1-0.4,0.2-0.5s0.3-0.2,0.6-0.2c0.3,0,0.5,0.1,0.6,0.2s0.2,0.5,0.2,1v1.8
						c0,0.2-0.1,0.4-0.2,0.5s-0.3,0.2-0.6,0.2c-0.2,0-0.3-0.1-0.5-0.2s-0.3-0.3-0.5-0.6c-0.3-0.5-0.7-0.9-1.1-1.2s-1-0.4-1.5-0.4
						c-1,0-1.8,0.3-2.5,0.9s-1,1.4-1,2.3c0,1,0.3,1.8,0.9,2.4s1.4,0.9,2.3,0.9c0.4,0,0.9-0.1,1.2-0.2s0.8-0.3,1.1-0.5
						c0.1-0.1,0.3-0.2,0.5-0.4c0.4-0.3,0.8-0.5,1-0.5c0.2,0,0.4,0.1,0.5,0.2s0.2,0.3,0.2,0.5c0,0.5-0.5,1-1.5,1.6s-2,0.8-3.1,0.8
						c-1.4,0-2.6-0.5-3.5-1.4s-1.4-2-1.4-3.4s0.5-2.5,1.4-3.4s2.1-1.4,3.5-1.4c0.5,0,1,0.1,1.5,0.2S425.4,298.3,425.9,298.6z"/>
					<path class="st2" d="M431.7,302.9c0.1,0.9,0.4,1.7,1,2.2c0.6,0.5,1.4,0.8,2.4,0.8c0.8,0,1.6-0.2,2.5-0.6s1.4-0.6,1.6-0.6
						c0.2,0,0.4,0.1,0.5,0.2s0.2,0.3,0.2,0.5c0,0.2-0.1,0.4-0.2,0.5c-0.1,0.2-0.4,0.3-0.7,0.5c-0.7,0.3-1.3,0.6-2,0.7
						s-1.4,0.3-2.1,0.3c-1.5,0-2.7-0.4-3.6-1.3s-1.3-2-1.3-3.4c0-1.4,0.5-2.6,1.4-3.5s2.2-1.3,3.7-1.3c1.4,0,2.5,0.4,3.4,1.2
						s1.4,1.8,1.4,3c0,0.4-0.1,0.6-0.2,0.7s-0.6,0.2-1.2,0.2h-0.1H431.7z M431.8,301.6h6.4c-0.1-0.8-0.4-1.4-1-1.9s-1.2-0.7-2-0.7
						c-0.9,0-1.6,0.2-2.2,0.7S431.9,300.8,431.8,301.6z"/>
					<path class="st2" d="M442.8,307h-0.5c-0.2,0-0.4-0.1-0.5-0.2s-0.2-0.3-0.2-0.5c0-0.3,0.1-0.4,0.2-0.5s0.5-0.1,1-0.1h0.6v-8.8
						h-0.6c-0.5,0-0.8-0.1-1-0.2s-0.2-0.3-0.2-0.6c0-0.2,0.1-0.4,0.2-0.5s0.3-0.2,0.6-0.2h0.4h8.1c0.2,0,0.4,0.1,0.5,0.2
						s0.2,0.3,0.2,0.6v2.3c0,0.3,0,0.6-0.1,0.7s-0.3,0.2-0.5,0.2c-0.3,0-0.5-0.1-0.6-0.2s-0.2-0.5-0.2-1v-1.4H445v3.3h2.6v-0.5
						c0-0.4,0-0.6,0.1-0.7s0.3-0.2,0.5-0.2c0.2,0,0.4,0.1,0.5,0.2s0.1,0.5,0.1,0.9v1.8c0,0.5,0,0.8-0.1,0.9s-0.3,0.2-0.5,0.2
						s-0.4-0.1-0.5-0.2s-0.1-0.5-0.1-0.9v-0.3H445v4.3h5.2V304c0-0.5,0.1-0.8,0.2-1s0.3-0.2,0.6-0.2c0.2,0,0.4,0.1,0.5,0.2
						s0.2,0.4,0.2,0.8v2.5c0,0.2-0.1,0.4-0.2,0.5s-0.3,0.2-0.5,0.2H442.8z"/>
					<path class="st2" d="M458.1,305.6h3.2c0.3,0,0.4,0.1,0.6,0.2s0.2,0.3,0.2,0.5c0,0.3-0.1,0.5-0.2,0.6s-0.3,0.2-0.6,0.2h-6.4
						c-0.3,0-0.4-0.1-0.6-0.2s-0.2-0.3-0.2-0.5c0-0.2,0.1-0.4,0.2-0.5s0.3-0.2,0.6-0.2h1.7v-6.3h-0.7c-0.6,0-1,0-1.2-0.2
						c-0.2-0.1-0.2-0.3-0.2-0.5c0-0.2,0.1-0.4,0.2-0.5s0.3-0.2,0.6-0.2h2.2c0.2,0,0.3,0,0.4,0.1s0.1,0.2,0.1,0.3v1.7
						c0.6-0.8,1.3-1.4,1.9-1.7s1.4-0.6,2.2-0.6c0.6,0,1,0.1,1.4,0.3c0.4,0.2,0.5,0.5,0.5,0.9c0,0.2-0.1,0.5-0.3,0.6
						s-0.4,0.3-0.6,0.3c-0.1,0-0.4-0.1-0.8-0.3s-0.7-0.3-1-0.3c-0.5,0-1,0.2-1.6,0.5s-1.2,0.9-1.9,1.7V305.6z"/>
					<path class="st2" d="M470.1,305.6h3.2c0.3,0,0.4,0.1,0.6,0.2s0.2,0.3,0.2,0.5c0,0.3-0.1,0.5-0.2,0.6s-0.3,0.2-0.6,0.2h-6.4
						c-0.3,0-0.4-0.1-0.6-0.2s-0.2-0.3-0.2-0.5c0-0.2,0.1-0.4,0.2-0.5s0.3-0.2,0.6-0.2h1.7v-6.3h-0.7c-0.6,0-1,0-1.2-0.2
						c-0.2-0.1-0.2-0.3-0.2-0.5c0-0.2,0.1-0.4,0.2-0.5s0.3-0.2,0.6-0.2h2.2c0.2,0,0.3,0,0.4,0.1s0.1,0.2,0.1,0.3v1.7
						c0.6-0.8,1.3-1.4,1.9-1.7s1.4-0.6,2.2-0.6c0.6,0,1,0.1,1.4,0.3c0.4,0.2,0.5,0.5,0.5,0.9c0,0.2-0.1,0.5-0.3,0.6
						s-0.4,0.3-0.6,0.3c-0.1,0-0.4-0.1-0.8-0.3s-0.7-0.3-1-0.3c-0.5,0-1,0.2-1.6,0.5s-1.2,0.9-1.9,1.7V305.6z"/>
					<path class="st2" d="M488.1,302.5c0,1.4-0.5,2.5-1.4,3.4s-2.2,1.3-3.7,1.3c-1.5,0-2.7-0.4-3.7-1.3s-1.4-2-1.4-3.4
						s0.5-2.5,1.4-3.4s2.2-1.3,3.7-1.3s2.7,0.4,3.7,1.3S488.1,301.1,488.1,302.5z M483,305.9c1,0,1.8-0.3,2.5-1s1-1.4,1-2.4
						s-0.3-1.8-1-2.4c-0.6-0.6-1.5-1-2.5-1s-1.8,0.3-2.5,1c-0.6,0.6-1,1.5-1,2.4c0,1,0.3,1.8,1,2.4C481.2,305.6,482,305.9,483,305.9
						z"/>
					<path class="st2" d="M494.1,305.6h3.2c0.3,0,0.4,0.1,0.6,0.2s0.2,0.3,0.2,0.5c0,0.3-0.1,0.5-0.2,0.6s-0.3,0.2-0.6,0.2h-6.4
						c-0.3,0-0.4-0.1-0.6-0.2s-0.2-0.3-0.2-0.5c0-0.2,0.1-0.4,0.2-0.5s0.3-0.2,0.6-0.2h1.7v-6.3h-0.7c-0.6,0-1,0-1.2-0.2
						c-0.2-0.1-0.2-0.3-0.2-0.5c0-0.2,0.1-0.4,0.2-0.5s0.3-0.2,0.6-0.2h2.2c0.2,0,0.3,0,0.4,0.1s0.1,0.2,0.1,0.3v1.7
						c0.6-0.8,1.3-1.4,1.9-1.7s1.4-0.6,2.2-0.6c0.6,0,1,0.1,1.4,0.3c0.4,0.2,0.5,0.5,0.5,0.9c0,0.2-0.1,0.5-0.3,0.6
						s-0.4,0.3-0.6,0.3c-0.1,0-0.4-0.1-0.8-0.3s-0.7-0.3-1-0.3c-0.5,0-1,0.2-1.6,0.5s-1.2,0.9-1.9,1.7V305.6z"/>
					<path class="st2" d="M505.1,300c0-0.5,0.2-0.9,0.5-1.2s0.8-0.5,1.4-0.5c0.6,0,1,0.2,1.4,0.5s0.5,0.7,0.5,1.3s-0.2,0.9-0.5,1.3
						s-0.8,0.5-1.4,0.5s-1-0.2-1.4-0.5S505.1,300.5,505.1,300z M505.1,305.4c0-0.5,0.2-0.9,0.5-1.2s0.8-0.5,1.4-0.5
						c0.6,0,1,0.2,1.4,0.5s0.5,0.7,0.5,1.3s-0.2,0.9-0.5,1.3s-0.8,0.5-1.4,0.5s-1-0.2-1.4-0.5S505.1,305.9,505.1,305.4z"/>
					<path class="st2" d="M534.7,301.6c0-0.9-0.1-1.5-0.2-1.9s-0.4-0.5-0.9-0.5c-0.5,0-0.9,0.2-1.1,0.6s-0.4,1-0.4,1.7v4.1h0.2
						c0.4,0,0.7,0,0.8,0.1s0.2,0.3,0.2,0.5c0,0.2-0.1,0.4-0.2,0.5s-0.3,0.2-0.5,0.2h-1.2c-0.3,0-0.5-0.1-0.6-0.2s-0.2-0.4-0.2-0.8
						v-0.3v-4.1v-0.8c0-0.5-0.1-0.9-0.3-1.2s-0.5-0.4-0.9-0.4c-0.3,0-0.6,0.1-0.8,0.3s-0.5,0.4-0.6,0.8v5.4h0.4c0.4,0,0.6,0,0.8,0.1
						s0.2,0.3,0.2,0.5c0,0.3-0.1,0.5-0.2,0.6c-0.1,0.1-0.3,0.2-0.6,0.2h-2.6c-0.3,0-0.4-0.1-0.6-0.2s-0.2-0.3-0.2-0.5
						c0-0.3,0.1-0.4,0.2-0.5c0.2-0.1,0.4-0.1,0.9-0.1h0.2v-6.3h-0.2c-0.5,0-0.8-0.1-0.9-0.2c-0.2-0.1-0.2-0.3-0.2-0.5
						c0-0.2,0.1-0.4,0.2-0.5s0.3-0.2,0.6-0.2h1.5c0.2,0,0.4,0,0.4,0.1s0.1,0.2,0.1,0.5c0.3-0.3,0.6-0.5,0.9-0.6s0.7-0.2,1-0.2
						c0.5,0,0.8,0.1,1.1,0.3s0.5,0.5,0.7,0.9c0.3-0.4,0.6-0.7,0.9-0.9c0.4-0.2,0.8-0.3,1.2-0.3c0.8,0,1.5,0.3,1.8,0.8
						s0.6,1.4,0.6,2.7v4.4h0.2c0.4,0,0.7,0,0.8,0.1c0.1,0.1,0.2,0.3,0.2,0.5c0,0.2-0.1,0.4-0.2,0.5s-0.3,0.2-0.5,0.2h-1.2
						c-0.3,0-0.5-0.1-0.6-0.2s-0.2-0.4-0.2-0.7V301.6z"/>
					<path class="st2" d="M542.3,309.5h0.4c0.5,0,0.8,0.1,1,0.2s0.3,0.3,0.3,0.6c0,0.2-0.1,0.4-0.2,0.5s-0.3,0.2-0.6,0.2h-4.5
						c-0.3,0-0.5-0.1-0.6-0.2s-0.2-0.3-0.2-0.5c0-0.2,0.1-0.4,0.2-0.5s0.3-0.2,0.6-0.2h2.1l1.6-3.1l-3.6-7c-0.4,0-0.7-0.1-0.9-0.2
						s-0.2-0.3-0.2-0.5c0-0.2,0.1-0.4,0.2-0.5s0.3-0.2,0.6-0.2h2.7c0.4,0,0.6,0,0.7,0.2s0.2,0.3,0.2,0.5c0,0.3-0.1,0.4-0.2,0.5
						s-0.5,0.2-0.9,0.2h-0.4l2.6,5.4l2.7-5.4h-0.4c-0.4,0-0.8-0.1-0.9-0.2s-0.3-0.3-0.3-0.5c0-0.3,0.1-0.4,0.2-0.5s0.4-0.2,0.7-0.2
						h2.4c0.3,0,0.5,0.1,0.6,0.2s0.2,0.3,0.2,0.5c0,0.2-0.1,0.4-0.2,0.5s-0.4,0.2-0.8,0.2L542.3,309.5z"/>
					<path class="st2" d="M550.2,296.8h-0.1c-0.3,0-0.6-0.1-0.7-0.2s-0.2-0.3-0.2-0.5c0-0.2,0.1-0.4,0.2-0.5s0.3-0.2,0.5-0.2h3
						c0.4,0,0.6,0.1,0.8,0.2s0.2,0.3,0.2,0.5c0,0.2-0.1,0.4-0.2,0.5s-0.4,0.2-0.7,0.2h-1.1l3.3,8.5l3.2-8.5h-1.3
						c-0.3,0-0.5-0.1-0.7-0.2s-0.2-0.3-0.2-0.5c0-0.3,0.1-0.4,0.2-0.5s0.4-0.2,0.8-0.2h3.1c0.2,0,0.4,0.1,0.5,0.2s0.2,0.3,0.2,0.5
						c0,0.3-0.1,0.4-0.2,0.5s-0.4,0.2-0.7,0.2h-0.1l-3.5,9.2c-0.2,0.5-0.4,0.8-0.5,0.9s-0.3,0.2-0.4,0.2h-0.6c-0.4,0-0.8-0.3-1-1
						l0-0.1L550.2,296.8z"/>
					<path class="st2" d="M569.3,305.8c-0.5,0.5-1.1,0.8-1.7,1.1s-1.3,0.4-1.9,0.4c-1,0-1.8-0.3-2.3-0.8s-0.9-1.2-0.9-2.1
						c0-1,0.4-1.8,1.2-2.4s1.9-0.8,3.3-0.8c0.4,0,0.8,0,1.1,0.1s0.8,0.1,1.2,0.2v-0.1c0-0.7-0.2-1.3-0.5-1.7s-0.9-0.5-1.7-0.5
						c-0.5,0-1.1,0.1-1.7,0.4s-1,0.4-1.2,0.4c-0.2,0-0.3-0.1-0.5-0.2s-0.2-0.3-0.2-0.6c0-0.4,0.4-0.7,1.1-1s1.6-0.4,2.8-0.4
						c1.1,0,2,0.3,2.6,0.9s0.9,1.4,0.9,2.6v4.4h0.5c0.5,0,0.8,0,0.9,0.1s0.2,0.3,0.2,0.5c0,0.2-0.1,0.4-0.2,0.5s-0.3,0.2-0.6,0.2
						H570c-0.2,0-0.3-0.1-0.4-0.2s-0.2-0.3-0.2-0.5L569.3,305.8z M569.2,302.7c-0.4-0.1-0.7-0.2-1-0.3s-0.7-0.1-1-0.1
						c-1,0-1.8,0.2-2.4,0.5s-0.9,0.8-0.9,1.4c0,0.4,0.2,0.8,0.5,1.1s0.8,0.4,1.4,0.4c0.8,0,1.6-0.2,2.3-0.6s1.1-0.9,1.1-1.4V302.7z"
						/>
					<path class="st2" d="M578.1,305.6h3.2c0.3,0,0.4,0.1,0.6,0.2s0.2,0.3,0.2,0.5c0,0.3-0.1,0.5-0.2,0.6s-0.3,0.2-0.6,0.2h-6.4
						c-0.3,0-0.4-0.1-0.6-0.2s-0.2-0.3-0.2-0.5c0-0.2,0.1-0.4,0.2-0.5s0.3-0.2,0.6-0.2h1.7v-6.3H576c-0.6,0-1,0-1.2-0.2
						c-0.2-0.1-0.2-0.3-0.2-0.5c0-0.2,0.1-0.4,0.2-0.5s0.3-0.2,0.6-0.2h2.2c0.2,0,0.3,0,0.4,0.1s0.1,0.2,0.1,0.3v1.7
						c0.6-0.8,1.3-1.4,1.9-1.7s1.4-0.6,2.2-0.6c0.6,0,1,0.1,1.4,0.3c0.4,0.2,0.5,0.5,0.5,0.9c0,0.2-0.1,0.5-0.3,0.6
						s-0.4,0.3-0.6,0.3c-0.1,0-0.4-0.1-0.8-0.3s-0.7-0.3-1-0.3c-0.5,0-1,0.2-1.6,0.5s-1.2,0.9-1.9,1.7V305.6z"/>
					<path class="st2" d="M591.9,305.6h3.1c0.3,0,0.4,0.1,0.6,0.2s0.2,0.3,0.2,0.5c0,0.3-0.1,0.5-0.2,0.6s-0.3,0.2-0.6,0.2h-7.6
						c-0.3,0-0.5-0.1-0.6-0.2s-0.2-0.3-0.2-0.5c0-0.2,0.1-0.4,0.2-0.5s0.3-0.2,0.6-0.2h3v-6.3h-1.9c-0.3,0-0.5-0.1-0.6-0.2
						c-0.1-0.1-0.2-0.3-0.2-0.5s0.1-0.4,0.2-0.5s0.3-0.2,0.6-0.2h2.9c0.2,0,0.3,0,0.4,0.1s0.2,0.2,0.2,0.3V305.6z M590.1,295.2
						c0-0.7,0.1-1.1,0.2-1.3s0.4-0.3,0.8-0.3c0.4,0,0.7,0.1,0.8,0.2s0.2,0.5,0.2,1.1c0,0.6-0.1,0.9-0.2,1s-0.4,0.2-0.8,0.2
						c-0.4,0-0.7-0.1-0.8-0.2S590.1,295.6,590.1,295.2z"/>
					<path class="st2" d="M605.3,305.8c-0.5,0.5-1.1,0.8-1.7,1.1s-1.3,0.4-1.9,0.4c-1,0-1.8-0.3-2.3-0.8s-0.9-1.2-0.9-2.1
						c0-1,0.4-1.8,1.2-2.4s1.9-0.8,3.3-0.8c0.4,0,0.8,0,1.1,0.1s0.8,0.1,1.2,0.2v-0.1c0-0.7-0.2-1.3-0.5-1.7s-0.9-0.5-1.7-0.5
						c-0.5,0-1.1,0.1-1.7,0.4s-1,0.4-1.2,0.4c-0.2,0-0.3-0.1-0.5-0.2s-0.2-0.3-0.2-0.6c0-0.4,0.4-0.7,1.1-1s1.6-0.4,2.8-0.4
						c1.1,0,2,0.3,2.6,0.9s0.9,1.4,0.9,2.6v4.4h0.5c0.5,0,0.8,0,0.9,0.1s0.2,0.3,0.2,0.5c0,0.2-0.1,0.4-0.2,0.5s-0.3,0.2-0.6,0.2
						H606c-0.2,0-0.3-0.1-0.4-0.2s-0.2-0.3-0.2-0.5L605.3,305.8z M605.2,302.7c-0.4-0.1-0.7-0.2-1-0.3s-0.7-0.1-1-0.1
						c-1,0-1.8,0.2-2.4,0.5s-0.9,0.8-0.9,1.4c0,0.4,0.2,0.8,0.5,1.1s0.8,0.4,1.4,0.4c0.8,0,1.6-0.2,2.3-0.6s1.1-0.9,1.1-1.4V302.7z"
						/>
					<path class="st2" d="M612.5,299.4c0.4-0.5,0.8-0.8,1.4-1s1.2-0.4,1.9-0.4c1.3,0,2.4,0.4,3.3,1.3s1.3,2,1.3,3.3
						c0,1.3-0.4,2.4-1.3,3.3s-2,1.3-3.3,1.3c-0.7,0-1.3-0.1-1.8-0.4s-0.9-0.6-1.2-1.1v0.8c0,0.2,0,0.3-0.1,0.4s-0.2,0.1-0.3,0.1
						h-1.8c-0.3,0-0.4-0.1-0.6-0.2s-0.2-0.3-0.2-0.5c0-0.3,0.1-0.4,0.2-0.5s0.4-0.1,0.9-0.1h0.2v-10h-0.2c-0.4,0-0.7-0.1-0.9-0.2
						s-0.2-0.3-0.2-0.5c0-0.2,0.1-0.4,0.2-0.5s0.3-0.2,0.6-0.2h1.5c0.2,0,0.3,0,0.4,0.1s0.1,0.2,0.1,0.3V299.4z M615.6,305.6
						c0.9,0,1.7-0.3,2.2-0.9s0.9-1.3,0.9-2.3c0-0.9-0.3-1.7-0.9-2.2s-1.3-0.9-2.2-0.9c-0.9,0-1.6,0.3-2.2,0.9s-0.9,1.3-0.9,2.2
						s0.3,1.7,0.9,2.2S614.7,305.6,615.6,305.6z"/>
					<path class="st2" d="M626.4,295.6h-1.7c-0.6,0-1-0.1-1.2-0.2s-0.2-0.3-0.2-0.6c0-0.2,0.1-0.4,0.2-0.5s0.3-0.2,0.6-0.2h3.2
						c0.2,0,0.3,0,0.4,0.1s0.1,0.2,0.1,0.3v11h3.1c0.2,0,0.4,0.1,0.5,0.2s0.2,0.3,0.2,0.5c0,0.3-0.1,0.5-0.2,0.6s-0.3,0.2-0.6,0.2
						h-7.2c-0.3,0-0.4-0.1-0.6-0.2s-0.2-0.3-0.2-0.5c0-0.2,0.1-0.4,0.2-0.5s0.3-0.2,0.6-0.2h2.7V295.6z"/>
					<path class="st2" d="M635.7,302.9c0.1,0.9,0.4,1.7,1,2.2c0.6,0.5,1.4,0.8,2.4,0.8c0.8,0,1.6-0.2,2.5-0.6s1.4-0.6,1.6-0.6
						c0.2,0,0.4,0.1,0.5,0.2s0.2,0.3,0.2,0.5c0,0.2-0.1,0.4-0.2,0.5c-0.1,0.2-0.4,0.3-0.7,0.5c-0.7,0.3-1.3,0.6-2,0.7
						s-1.4,0.3-2.1,0.3c-1.5,0-2.7-0.4-3.6-1.3s-1.3-2-1.3-3.4c0-1.4,0.5-2.6,1.4-3.5s2.2-1.3,3.7-1.3c1.4,0,2.5,0.4,3.4,1.2
						s1.4,1.8,1.4,3c0,0.4-0.1,0.6-0.2,0.7s-0.6,0.2-1.2,0.2h-0.1H635.7z M635.8,301.6h6.4c-0.1-0.8-0.4-1.4-1-1.9s-1.2-0.7-2-0.7
						c-0.9,0-1.6,0.2-2.2,0.7S636,300.8,635.8,301.6z"/>
					<path class="st2" d="M664,305.6h3.1c0.3,0,0.4,0.1,0.6,0.2s0.2,0.3,0.2,0.5c0,0.3-0.1,0.5-0.2,0.6s-0.3,0.2-0.6,0.2h-7.6
						c-0.3,0-0.5-0.1-0.6-0.2s-0.2-0.3-0.2-0.5c0-0.2,0.1-0.4,0.2-0.5s0.3-0.2,0.6-0.2h3v-6.3h-1.9c-0.3,0-0.5-0.1-0.6-0.2
						c-0.1-0.1-0.2-0.3-0.2-0.5s0.1-0.4,0.2-0.5s0.3-0.2,0.6-0.2h2.9c0.2,0,0.3,0,0.4,0.1s0.2,0.2,0.2,0.3V305.6z M662.2,295.2
						c0-0.7,0.1-1.1,0.2-1.3s0.4-0.3,0.8-0.3c0.4,0,0.7,0.1,0.8,0.2s0.2,0.5,0.2,1.1c0,0.6-0.1,0.9-0.2,1s-0.4,0.2-0.8,0.2
						c-0.4,0-0.7-0.1-0.8-0.2S662.2,295.6,662.2,295.2z"/>
					<path class="st2" d="M670.8,306.3v-1.7c0-0.3,0.1-0.5,0.2-0.6s0.3-0.2,0.5-0.2c0.3,0,0.5,0.2,0.6,0.5c0.1,0.2,0.2,0.4,0.3,0.5
						c0.3,0.4,0.7,0.6,1.2,0.8s1.1,0.3,1.8,0.3c0.7,0,1.2-0.1,1.7-0.4s0.6-0.6,0.6-1.1c0-0.5-0.2-0.8-0.5-1s-0.9-0.3-1.7-0.3h-0.5
						c-1.3,0-2.3-0.2-3-0.7s-1-1.1-1-2c0-0.9,0.3-1.5,1-2s1.6-0.7,2.9-0.7c0.5,0,1,0.1,1.5,0.2s0.8,0.2,0.8,0.2
						c0.1,0,0.2-0.1,0.4-0.2s0.4-0.2,0.6-0.2c0.2,0,0.4,0.1,0.5,0.2s0.2,0.4,0.2,0.7v1.1c0,0.3-0.1,0.6-0.2,0.7s-0.3,0.2-0.5,0.2
						c-0.2,0-0.4-0.2-0.7-0.5c-0.2-0.2-0.4-0.4-0.5-0.5c-0.3-0.3-0.7-0.5-1.1-0.7s-0.8-0.2-1.4-0.2c-0.6,0-1.1,0.1-1.5,0.4
						s-0.6,0.6-0.6,1c0,0.4,0.2,0.7,0.6,0.9s1.2,0.3,2.5,0.3c1.4,0,2.3,0.3,3,0.7s0.9,1.1,0.9,2c0,0.9-0.3,1.6-1,2.1
						s-1.6,0.8-2.8,0.8c-0.4,0-0.8,0-1.2-0.1s-1-0.2-1.7-0.3c-0.2,0.1-0.4,0.3-0.6,0.3s-0.3,0.1-0.4,0.1c-0.2,0-0.4-0.1-0.5-0.2
						S670.8,306.6,670.8,306.3z"/>
					<path class="st2" d="M695.4,305.6v-6.3h-0.2c-0.4,0-0.7-0.1-0.9-0.2s-0.2-0.3-0.2-0.5c0-0.2,0.1-0.4,0.2-0.5s0.4-0.2,0.7-0.2
						h0.5h0.9c0.2,0,0.3,0,0.4,0.1s0.1,0.2,0.1,0.3v0.7c0.5-0.4,0.9-0.8,1.4-1s0.9-0.3,1.5-0.3c1,0,1.8,0.3,2.3,0.9s0.8,1.5,0.8,2.5
						v4.4h0.5c0.3,0,0.6,0.1,0.7,0.2s0.2,0.3,0.2,0.5c0,0.3-0.1,0.4-0.2,0.5c-0.2,0.1-0.4,0.2-0.8,0.2h-2.2c-0.4,0-0.7,0-0.8-0.1
						s-0.2-0.3-0.2-0.6c0-0.3,0.1-0.4,0.2-0.5c0.1-0.1,0.4-0.1,0.8-0.1h0.3v-4.1c0-0.8-0.2-1.3-0.5-1.7c-0.3-0.4-0.8-0.6-1.5-0.6
						c-0.7,0-1.3,0.2-1.8,0.7c-0.5,0.4-0.8,1-0.8,1.7v4.1h0.3c0.4,0,0.7,0,0.8,0.1s0.2,0.3,0.2,0.5c0,0.3-0.1,0.5-0.2,0.6
						s-0.4,0.1-0.9,0.1h-1.8h-0.5c-0.3,0-0.5-0.1-0.6-0.2s-0.2-0.3-0.2-0.5c0-0.3,0.1-0.4,0.2-0.5s0.5-0.1,0.9-0.1H695.4z"/>
					<path class="st2" d="M716.2,302.5c0,1.4-0.5,2.5-1.4,3.4s-2.2,1.3-3.7,1.3c-1.5,0-2.7-0.4-3.7-1.3s-1.4-2-1.4-3.4
						s0.5-2.5,1.4-3.4s2.2-1.3,3.7-1.3s2.7,0.4,3.7,1.3S716.2,301.1,716.2,302.5z M711.1,305.9c1,0,1.8-0.3,2.5-1s1-1.4,1-2.4
						s-0.3-1.8-1-2.4c-0.6-0.6-1.5-1-2.5-1s-1.8,0.3-2.5,1c-0.6,0.6-1,1.5-1,2.4c0,1,0.3,1.8,1,2.4
						C709.2,305.6,710.1,305.9,711.1,305.9z"/>
					<path class="st2" d="M725.7,298.5c0.3,0,0.6,0.1,0.7,0.2s0.2,0.3,0.2,0.5c0,0.2-0.1,0.4-0.2,0.5s-0.3,0.2-0.6,0.2h-4v3.3
						c0,1.1,0.1,1.8,0.4,2.1s0.8,0.5,1.4,0.5c0.6,0,1.3-0.2,2.1-0.5s1.3-0.5,1.5-0.5c0.2,0,0.3,0.1,0.5,0.2s0.2,0.3,0.2,0.5
						c0,0.2-0.1,0.4-0.2,0.6s-0.4,0.3-0.8,0.5c-0.6,0.3-1.2,0.4-1.7,0.6s-1,0.2-1.4,0.2c-0.8,0-1.4-0.1-1.9-0.4s-0.9-0.6-1.2-1.1
						c-0.1-0.2-0.2-0.5-0.3-0.8s-0.1-0.8-0.1-1.4v-0.3v-3.3h-1.7c-0.3,0-0.5-0.1-0.6-0.2s-0.2-0.3-0.2-0.5c0-0.3,0.1-0.4,0.3-0.5
						s0.5-0.1,1.1-0.1h1.1v-2V296c0-0.3,0.1-0.5,0.2-0.6s0.3-0.2,0.6-0.2c0.3,0,0.5,0.1,0.6,0.2s0.2,0.5,0.2,1.1v2H725.7z"/>
					<path class="st2" d="M750,307c-0.1,0-0.2,0-0.3-0.1s-0.1-0.2-0.1-0.4v-0.8c-0.4,0.5-0.9,0.9-1.5,1.1s-1.2,0.4-1.9,0.4
						c-1.2,0-2.3-0.4-3.1-1.3s-1.2-2-1.2-3.3c0-1.3,0.4-2.5,1.3-3.4s2-1.3,3.3-1.3c0.7,0,1.3,0.1,1.8,0.4s1,0.6,1.4,1v-3.7h-0.5
						c-0.6,0-0.9-0.1-1.1-0.2s-0.2-0.3-0.2-0.6c0-0.2,0.1-0.4,0.2-0.5s0.3-0.2,0.6-0.2h2c0.2,0,0.3,0,0.4,0.1s0.1,0.2,0.1,0.3v11
						h0.4c0.3,0,0.6,0.1,0.7,0.2s0.2,0.3,0.2,0.5c0,0.2-0.1,0.4-0.2,0.5s-0.3,0.2-0.5,0.2H750z M743.6,302.6c0,0.9,0.3,1.6,0.9,2.2
						s1.3,0.9,2.2,0.9c0.9,0,1.6-0.3,2.2-0.9s0.9-1.4,0.9-2.3c0-0.9-0.3-1.7-0.9-2.2s-1.3-0.9-2.2-0.9c-0.9,0-1.7,0.3-2.2,0.9
						S743.6,301.7,743.6,302.6z"/>
					<path class="st2" d="M755.8,302.9c0.1,0.9,0.4,1.7,1,2.2c0.6,0.5,1.4,0.8,2.4,0.8c0.8,0,1.6-0.2,2.5-0.6s1.4-0.6,1.6-0.6
						c0.2,0,0.4,0.1,0.5,0.2s0.2,0.3,0.2,0.5c0,0.2-0.1,0.4-0.2,0.5c-0.1,0.2-0.4,0.3-0.7,0.5c-0.7,0.3-1.3,0.6-2,0.7
						s-1.4,0.3-2.1,0.3c-1.5,0-2.7-0.4-3.6-1.3s-1.3-2-1.3-3.4c0-1.4,0.5-2.6,1.4-3.5s2.2-1.3,3.7-1.3c1.4,0,2.5,0.4,3.4,1.2
						s1.4,1.8,1.4,3c0,0.4-0.1,0.6-0.2,0.7s-0.6,0.2-1.2,0.2h-0.1H755.8z M755.8,301.6h6.4c-0.1-0.8-0.4-1.4-1-1.9s-1.2-0.7-2-0.7
						c-0.9,0-1.6,0.2-2.2,0.7S756,300.8,755.8,301.6z"/>
					<path class="st2" d="M774.1,305.6c0.3,0,0.5,0.1,0.6,0.2s0.2,0.3,0.2,0.5c0,0.2-0.1,0.4-0.2,0.5s-0.3,0.2-0.6,0.2h-6.4
						c-0.3,0-0.5-0.1-0.6-0.2s-0.2-0.3-0.2-0.5c0-0.2,0.1-0.4,0.2-0.5s0.3-0.2,0.6-0.2h1.7v-6h-1.6c-0.3,0-0.5-0.1-0.6-0.2
						s-0.2-0.3-0.2-0.5c0-0.2,0.1-0.4,0.2-0.5s0.3-0.2,0.6-0.2h1.5v-0.7c0-1.2,0.3-2,1-2.6s1.8-0.8,3.3-0.8c0.7,0,1.3,0.1,1.6,0.2
						s0.5,0.4,0.5,0.8c0,0.2-0.1,0.4-0.2,0.5s-0.3,0.2-0.6,0.2c-0.1,0-0.4,0-0.8-0.1s-0.8-0.1-1.1-0.1c-0.7,0-1.3,0.2-1.6,0.5
						s-0.5,0.8-0.5,1.5v0.6h3.5c0.3,0,0.5,0.1,0.6,0.2s0.2,0.3,0.2,0.5c0,0.2-0.1,0.4-0.2,0.5s-0.3,0.2-0.6,0.2h-3.4v6H774.1z"/>
					<path class="st2" d="M784,305.6h3.1c0.3,0,0.4,0.1,0.6,0.2s0.2,0.3,0.2,0.5c0,0.3-0.1,0.5-0.2,0.6s-0.3,0.2-0.6,0.2h-7.6
						c-0.3,0-0.5-0.1-0.6-0.2s-0.2-0.3-0.2-0.5c0-0.2,0.1-0.4,0.2-0.5s0.3-0.2,0.6-0.2h3v-6.3h-1.9c-0.3,0-0.5-0.1-0.6-0.2
						c-0.1-0.1-0.2-0.3-0.2-0.5s0.1-0.4,0.2-0.5s0.3-0.2,0.6-0.2h2.9c0.2,0,0.3,0,0.4,0.1s0.2,0.2,0.2,0.3V305.6z M782.2,295.2
						c0-0.7,0.1-1.1,0.2-1.3s0.4-0.3,0.8-0.3c0.4,0,0.7,0.1,0.8,0.2s0.2,0.5,0.2,1.1c0,0.6-0.1,0.9-0.2,1s-0.4,0.2-0.8,0.2
						c-0.4,0-0.7-0.1-0.8-0.2S782.2,295.6,782.2,295.2z"/>
					<path class="st2" d="M791.4,305.6v-6.3h-0.2c-0.4,0-0.7-0.1-0.9-0.2s-0.2-0.3-0.2-0.5c0-0.2,0.1-0.4,0.2-0.5s0.4-0.2,0.7-0.2
						h0.5h0.9c0.2,0,0.3,0,0.4,0.1s0.1,0.2,0.1,0.3v0.7c0.5-0.4,0.9-0.8,1.4-1s0.9-0.3,1.5-0.3c1,0,1.8,0.3,2.3,0.9s0.8,1.5,0.8,2.5
						v4.4h0.5c0.3,0,0.6,0.1,0.7,0.2s0.2,0.3,0.2,0.5c0,0.3-0.1,0.4-0.2,0.5c-0.2,0.1-0.4,0.2-0.8,0.2h-2.2c-0.4,0-0.7,0-0.8-0.1
						s-0.2-0.3-0.2-0.6c0-0.3,0.1-0.4,0.2-0.5c0.1-0.1,0.4-0.1,0.8-0.1h0.3v-4.1c0-0.8-0.2-1.3-0.5-1.7c-0.3-0.4-0.8-0.6-1.5-0.6
						c-0.7,0-1.3,0.2-1.8,0.7c-0.5,0.4-0.8,1-0.8,1.7v4.1h0.3c0.4,0,0.7,0,0.8,0.1s0.2,0.3,0.2,0.5c0,0.3-0.1,0.5-0.2,0.6
						s-0.4,0.1-0.9,0.1h-1.8h-0.5c-0.3,0-0.5-0.1-0.6-0.2s-0.2-0.3-0.2-0.5c0-0.3,0.1-0.4,0.2-0.5s0.5-0.1,0.9-0.1H791.4z"/>
					<path class="st2" d="M803.8,302.9c0.1,0.9,0.4,1.7,1,2.2c0.6,0.5,1.4,0.8,2.4,0.8c0.8,0,1.6-0.2,2.5-0.6s1.4-0.6,1.6-0.6
						c0.2,0,0.4,0.1,0.5,0.2s0.2,0.3,0.2,0.5c0,0.2-0.1,0.4-0.2,0.5c-0.1,0.2-0.4,0.3-0.7,0.5c-0.7,0.3-1.3,0.6-2,0.7
						s-1.4,0.3-2.1,0.3c-1.5,0-2.7-0.4-3.6-1.3s-1.3-2-1.3-3.4c0-1.4,0.5-2.6,1.4-3.5s2.2-1.3,3.7-1.3c1.4,0,2.5,0.4,3.4,1.2
						s1.4,1.8,1.4,3c0,0.4-0.1,0.6-0.2,0.7s-0.6,0.2-1.2,0.2h-0.1H803.8z M803.8,301.6h6.4c-0.1-0.8-0.4-1.4-1-1.9s-1.2-0.7-2-0.7
						c-0.9,0-1.6,0.2-2.2,0.7S804,300.8,803.8,301.6z"/>
					<path class="st2" d="M822,307c-0.1,0-0.2,0-0.3-0.1s-0.1-0.2-0.1-0.4v-0.8c-0.4,0.5-0.9,0.9-1.5,1.1s-1.2,0.4-1.9,0.4
						c-1.2,0-2.3-0.4-3.1-1.3s-1.2-2-1.2-3.3c0-1.3,0.4-2.5,1.3-3.4s2-1.3,3.3-1.3c0.7,0,1.3,0.1,1.8,0.4s1,0.6,1.4,1v-3.7h-0.5
						c-0.6,0-0.9-0.1-1.1-0.2s-0.2-0.3-0.2-0.6c0-0.2,0.1-0.4,0.2-0.5s0.3-0.2,0.6-0.2h2c0.2,0,0.3,0,0.4,0.1s0.1,0.2,0.1,0.3v11
						h0.4c0.3,0,0.6,0.1,0.7,0.2s0.2,0.3,0.2,0.5c0,0.2-0.1,0.4-0.2,0.5s-0.3,0.2-0.5,0.2H822z M815.6,302.6c0,0.9,0.3,1.6,0.9,2.2
						s1.3,0.9,2.2,0.9c0.9,0,1.6-0.3,2.2-0.9s0.9-1.4,0.9-2.3c0-0.9-0.3-1.7-0.9-2.2s-1.3-0.9-2.2-0.9c-0.9,0-1.7,0.3-2.2,0.9
						S815.6,301.7,815.6,302.6z"/>
				</g>
			</g>
		</g>
		<g>
			<defs>
				<rect id="SVGID_3_" x="377" y="350" width="55" height="51"/>
			</defs>
			<clipPath id="SVGID_4_">
				<use xlink:href="#SVGID_3_"  style="overflow:visible;"/>
			</clipPath>
			<g class="st4">
				<g class="st1">
					<path class="st5" d="M381.5,364.9h6.1v1.1h-7.2v-11.3h7v1.1h-5.9v3.9h5.5v1.1h-5.5V364.9z"/>
					<path class="st5" d="M391,366h-1.2v-11.3h3.5c1.2,0,2.1,0.3,2.7,0.8c0.7,0.5,1,1.3,1,2.3c0,0.8-0.2,1.5-0.7,2
						c-0.5,0.5-1.2,0.9-2.2,0.9l3.3,5.4H396l-3.1-5.3H391V366z M391,359.7h2c0.5,0,0.9-0.1,1.3-0.2c0.4-0.1,0.6-0.2,0.9-0.4
						c0.2-0.2,0.4-0.4,0.5-0.6c0.1-0.2,0.1-0.5,0.1-0.8c0-0.3,0-0.5-0.1-0.8c-0.1-0.2-0.3-0.5-0.5-0.6c-0.2-0.2-0.5-0.3-0.9-0.4
						s-0.8-0.2-1.3-0.2h-2V359.7z"/>
					<path class="st5" d="M400.5,366h-1.2v-11.3h3.5c1.2,0,2.1,0.3,2.7,0.8c0.7,0.5,1,1.3,1,2.3c0,0.8-0.2,1.5-0.7,2
						c-0.5,0.5-1.2,0.9-2.2,0.9l3.3,5.4h-1.4l-3.1-5.3h-1.9V366z M400.5,359.7h2c0.5,0,0.9-0.1,1.3-0.2c0.4-0.1,0.6-0.2,0.9-0.4
						c0.2-0.2,0.4-0.4,0.5-0.6c0.1-0.2,0.1-0.5,0.1-0.8c0-0.3,0-0.5-0.1-0.8c-0.1-0.2-0.3-0.5-0.5-0.6c-0.2-0.2-0.5-0.3-0.9-0.4
						s-0.8-0.2-1.3-0.2h-2V359.7z"/>
					<path class="st5" d="M419.9,360.3c0,0.9-0.1,1.7-0.4,2.4c-0.3,0.7-0.7,1.4-1.2,1.9c-0.5,0.5-1.2,0.9-1.9,1.2
						c-0.7,0.3-1.5,0.4-2.3,0.4s-1.6-0.1-2.3-0.4c-0.7-0.3-1.3-0.7-1.9-1.2c-0.5-0.5-0.9-1.2-1.2-1.9c-0.3-0.7-0.4-1.5-0.4-2.4
						s0.1-1.7,0.4-2.4c0.3-0.7,0.7-1.4,1.2-1.9c0.5-0.5,1.2-0.9,1.9-1.2c0.7-0.3,1.5-0.4,2.3-0.4s1.6,0.1,2.3,0.4
						c0.7,0.3,1.3,0.7,1.9,1.2c0.5,0.5,0.9,1.2,1.2,1.9C419.7,358.7,419.9,359.5,419.9,360.3z M418.6,360.3c0-0.7-0.1-1.3-0.3-1.9
						c-0.2-0.6-0.5-1.1-0.9-1.6s-0.9-0.8-1.5-1.1s-1.2-0.4-2-0.4s-1.4,0.1-2,0.4c-0.6,0.3-1.1,0.6-1.5,1.1s-0.7,1-0.9,1.6
						c-0.2,0.6-0.3,1.2-0.3,1.9s0.1,1.3,0.3,1.9s0.5,1.1,0.9,1.6s0.9,0.8,1.5,1.1c0.6,0.3,1.2,0.4,2,0.4s1.4-0.1,2-0.4
						s1.1-0.6,1.5-1.1s0.7-1,0.9-1.6S418.6,361,418.6,360.3z"/>
					<path class="st5" d="M423.3,366h-1.2v-11.3h3.5c1.2,0,2.1,0.3,2.7,0.8c0.7,0.5,1,1.3,1,2.3c0,0.8-0.2,1.5-0.7,2
						c-0.5,0.5-1.2,0.9-2.2,0.9l3.3,5.4h-1.4l-3.1-5.3h-1.9V366z M423.3,359.7h2c0.5,0,0.9-0.1,1.3-0.2c0.4-0.1,0.6-0.2,0.9-0.4
						c0.2-0.2,0.4-0.4,0.5-0.6c0.1-0.2,0.1-0.5,0.1-0.8c0-0.3,0-0.5-0.1-0.8c-0.1-0.2-0.3-0.5-0.5-0.6c-0.2-0.2-0.5-0.3-0.9-0.4
						s-0.8-0.2-1.3-0.2h-2V359.7z"/>
				</g>
				<g class="st1">
					<path class="st5" d="M391.1,388H390v-10.3h-3.8v-1.1h8.7v1.1h-3.8V388z"/>
					<path class="st5" d="M400.3,388h-1.2v-4.9l-4.2-6.4h1.4l3.4,5.3l3.4-5.3h1.4l-4.2,6.4V388z"/>
					<path class="st5" d="M405.9,376.7h3.3c1.2,0,2.1,0.3,2.7,0.8c0.7,0.5,1,1.3,1,2.3s-0.3,1.8-1,2.3c-0.7,0.5-1.6,0.8-2.7,0.8H407
						v5.3h-1.2V376.7z M407,381.7h1.9c0.5,0,0.9-0.1,1.3-0.2c0.4-0.1,0.6-0.2,0.9-0.4c0.2-0.2,0.4-0.4,0.5-0.6
						c0.1-0.2,0.1-0.5,0.1-0.8c0-0.3,0-0.5-0.1-0.8c-0.1-0.2-0.3-0.5-0.5-0.6c-0.2-0.2-0.5-0.3-0.9-0.4c-0.4-0.1-0.8-0.2-1.3-0.2
						H407V381.7z"/>
					<path class="st5" d="M416.2,386.9h6.1v1.1h-7.2v-11.3h7v1.1h-5.9v3.9h5.5v1.1h-5.5V386.9z"/>
				</g>
			</g>
		</g>
		<g>
			<defs>
				<rect id="SVGID_5_" x="459" y="257" width="85" height="21"/>
			</defs>
			<clipPath id="SVGID_6_">
				<use xlink:href="#SVGID_5_"  style="overflow:visible;"/>
			</clipPath>
			<g class="st6">
				<g class="st1">
					<path class="st5" d="M463.1,273h-1.2v-11.3h6.8v1.1h-5.7v3.9h5.3v1.1h-5.3V273z"/>
					<path class="st5" d="M472,273h-1.2v-11.3h1.2V273z"/>
					<path class="st5" d="M476.2,271.9h5.3v1.1h-6.4v-11.3h1.2V271.9z"/>
					<path class="st5" d="M484.2,271.9h6.1v1.1h-7.2v-11.3h7v1.1h-5.9v3.9h5.5v1.1h-5.5V271.9z"/>
					<path class="st5" d="M505.2,271.3L505.2,271.3l0-9.6h1.2V273h-1.4l-6.8-9.7h0v9.7H497v-11.3h1.4L505.2,271.3z"/>
					<path class="st5" d="M509.2,273h-1.3l4.9-11.3h1.1l4.9,11.3h-1.3l-1.2-3h-5.8L509.2,273z M510.9,269h4.9l-2.4-6L510.9,269z"/>
					<path class="st5" d="M526,270.9l3.8-9.2h1.8V273h-1.2v-9.8h0l-4.1,9.8h-0.6l-4.1-9.8h0v9.8h-1.2v-11.3h1.8L526,270.9z"/>
					<path class="st5" d="M535.8,271.9h6.1v1.1h-7.2v-11.3h7v1.1h-5.9v3.9h5.5v1.1h-5.5V271.9z"/>
				</g>
			</g>
		</g>
		<g>
			<defs>
				<rect id="SVGID_7_" x="550" y="257" width="106" height="21"/>
			</defs>
			<clipPath id="SVGID_8_">
				<use xlink:href="#SVGID_7_"  style="overflow:visible;"/>
			</clipPath>
			<g class="st7">
				<g class="st1">
					<path class="st5" d="M553,271.9h5.3v1.1h-6.4v-11.3h1.2V271.9z"/>
					<path class="st5" d="M561,273h-1.2v-11.3h1.2V273z"/>
					<path class="st5" d="M572.3,271.3L572.3,271.3l0-9.6h1.2V273H572l-6.8-9.7h0v9.7h-1.2v-11.3h1.4L572.3,271.3z"/>
					<path class="st5" d="M577.7,271.9h6.1v1.1h-7.2v-11.3h7v1.1h-5.9v3.9h5.5v1.1h-5.5V271.9z"/>
					<path class="st5" d="M598.7,271.3L598.7,271.3l0-9.6h1.2V273h-1.4l-6.8-9.7h0v9.7h-1.2v-11.3h1.4L598.7,271.3z"/>
					<path class="st5" d="M611,268.8c0,0.5-0.1,1-0.2,1.5c-0.1,0.5-0.3,1-0.6,1.5c-0.3,0.4-0.7,0.8-1.3,1.1
						c-0.5,0.3-1.2,0.4-2.1,0.4c-0.9,0-1.5-0.1-2.1-0.4c-0.5-0.3-1-0.7-1.3-1.1c-0.3-0.4-0.5-0.9-0.6-1.5c-0.1-0.5-0.2-1-0.2-1.5
						v-7.1h1.2v7c0,0.5,0.1,1,0.2,1.4c0.1,0.4,0.2,0.7,0.4,1s0.4,0.5,0.6,0.6s0.4,0.3,0.7,0.4c0.2,0.1,0.4,0.1,0.6,0.2
						c0.2,0,0.4,0,0.5,0c0.1,0,0.3,0,0.5,0c0.2,0,0.4-0.1,0.6-0.2c0.2-0.1,0.4-0.2,0.7-0.4c0.2-0.2,0.4-0.4,0.6-0.6s0.3-0.6,0.4-1
						c0.1-0.4,0.2-0.9,0.2-1.4v-7h1.2V268.8z"/>
					<path class="st5" d="M619.5,270.9l3.8-9.2h1.8V273h-1.2v-9.8h0l-4.1,9.8h-0.6l-4.1-9.8h0v9.8h-1.2v-11.3h1.8L619.5,270.9z"/>
					<path class="st5" d="M628.1,261.7h3.4c0.5,0,0.9,0,1.4,0.1c0.4,0.1,0.8,0.3,1.2,0.5c0.3,0.2,0.6,0.5,0.8,0.9
						c0.2,0.4,0.3,0.8,0.3,1.3c0,0.6-0.2,1.2-0.5,1.6s-0.8,0.7-1.5,0.9v0c0.8,0.1,1.4,0.3,1.9,0.8c0.5,0.5,0.7,1.2,0.7,2
						c0,0.2,0,0.4-0.1,0.8c-0.1,0.4-0.3,0.7-0.6,1s-0.7,0.6-1.2,0.9s-1.3,0.4-2.2,0.4h-3.5V261.7z M629.3,266.6h2.3
						c0.3,0,0.6,0,0.8-0.1c0.3-0.1,0.5-0.2,0.7-0.3c0.2-0.2,0.4-0.4,0.5-0.6c0.1-0.3,0.2-0.6,0.2-0.9c0-0.1,0-0.3-0.1-0.5
						c0-0.2-0.2-0.4-0.3-0.6c-0.2-0.2-0.4-0.4-0.7-0.6c-0.3-0.2-0.8-0.2-1.3-0.2h-2.2V266.6z M629.3,271.9h2.2c0.4,0,0.8,0,1.2-0.1
						c0.4-0.1,0.7-0.2,0.9-0.4s0.5-0.4,0.6-0.7c0.2-0.3,0.2-0.6,0.2-1c0-0.7-0.2-1.3-0.7-1.7c-0.5-0.4-1.2-0.5-2.1-0.5h-2.4V271.9z"
						/>
					<path class="st5" d="M639.4,271.9h6.1v1.1h-7.2v-11.3h7v1.1h-5.9v3.9h5.5v1.1h-5.5V271.9z"/>
					<path class="st5" d="M648.9,273h-1.2v-11.3h3.5c1.2,0,2.1,0.3,2.7,0.8c0.7,0.5,1,1.3,1,2.3c0,0.8-0.2,1.5-0.7,2
						c-0.5,0.5-1.2,0.9-2.2,0.9l3.3,5.4h-1.4l-3.1-5.3h-1.9V273z M648.9,266.7h2c0.5,0,0.9-0.1,1.3-0.2c0.4-0.1,0.6-0.2,0.9-0.4
						c0.2-0.2,0.4-0.4,0.5-0.6c0.1-0.2,0.1-0.5,0.1-0.8c0-0.3,0-0.5-0.1-0.8c-0.1-0.2-0.3-0.5-0.5-0.6c-0.2-0.2-0.5-0.3-0.9-0.4
						s-0.8-0.2-1.3-0.2h-2V266.7z"/>
				</g>
			</g>
		</g>
		<g>
			<defs>
				<rect id="SVGID_9_" x="5" y="11" width="1157" height="531"/>
			</defs>
			<clipPath id="SVGID_10_">
				<use xlink:href="#SVGID_9_"  style="overflow:visible;"/>
			</clipPath>
			<g class="st8">
				<line class="st9" x1="493.2" y1="312" x2="493.2" y2="331"/>
				<line class="st9" x1="335.8" y1="312" x2="335.8" y2="331"/>
				<line class="st9" x1="404.2" y1="332" x2="404.2" y2="344"/>
				<line class="st9" x1="493.5" y1="331" x2="336.5" y2="331"/>
				<line class="st9" x1="823.2" y1="312" x2="823.2" y2="331"/>
				<line class="st9" x1="527.8" y1="312" x2="527.8" y2="331"/>
				<line class="st9" x1="656.2" y1="332" x2="656.2" y2="344"/>
				<line class="st9" x1="822.7" y1="331" x2="528.1" y2="331"/>
			</g>
		</g>
		<g>
			<defs>
				<rect id="SVGID_11_" x="377" y="143" width="138" height="21"/>
			</defs>
			<clipPath id="SVGID_12_">
				<use xlink:href="#SVGID_11_"  style="overflow:visible;"/>
			</clipPath>
			<g class="st10">
				<g class="st1">
					<path class="st5" d="M380,157.9h6.1v1.1h-7.2v-11.3h7v1.1H380v3.9h5.5v1.1H380V157.9z"/>
					<path class="st5" d="M389.5,159h-1.2v-11.3h3.5c1.2,0,2.1,0.3,2.7,0.8c0.7,0.5,1,1.3,1,2.3c0,0.8-0.2,1.5-0.7,2
						c-0.5,0.5-1.2,0.9-2.2,0.9l3.3,5.4h-1.4l-3.1-5.3h-1.9V159z M389.5,152.7h2c0.5,0,0.9-0.1,1.3-0.2c0.4-0.1,0.6-0.2,0.9-0.4
						c0.2-0.2,0.4-0.4,0.5-0.6c0.1-0.2,0.1-0.5,0.1-0.8c0-0.3,0-0.5-0.1-0.8c-0.1-0.2-0.3-0.5-0.5-0.6c-0.2-0.2-0.5-0.3-0.9-0.4
						s-0.8-0.2-1.3-0.2h-2V152.7z"/>
					<path class="st5" d="M398.9,159h-1.2v-11.3h3.5c1.2,0,2.1,0.3,2.7,0.8c0.7,0.5,1,1.3,1,2.3c0,0.8-0.2,1.5-0.7,2
						c-0.5,0.5-1.2,0.9-2.2,0.9l3.3,5.4H404l-3.1-5.3h-1.9V159z M398.9,152.7h2c0.5,0,0.9-0.1,1.3-0.2c0.4-0.1,0.6-0.2,0.9-0.4
						c0.2-0.2,0.4-0.4,0.5-0.6c0.1-0.2,0.1-0.5,0.1-0.8c0-0.3,0-0.5-0.1-0.8c-0.1-0.2-0.2-0.5-0.5-0.6c-0.2-0.2-0.5-0.3-0.9-0.4
						s-0.8-0.2-1.3-0.2h-2V152.7z"/>
					<path class="st5" d="M418.3,153.3c0,0.9-0.1,1.7-0.4,2.4c-0.3,0.7-0.7,1.4-1.2,1.9c-0.5,0.5-1.2,0.9-1.9,1.2
						c-0.7,0.3-1.5,0.4-2.3,0.4s-1.6-0.1-2.3-0.4s-1.3-0.7-1.9-1.2c-0.5-0.5-0.9-1.2-1.2-1.9c-0.3-0.7-0.4-1.5-0.4-2.4
						s0.1-1.7,0.4-2.4c0.3-0.7,0.7-1.4,1.2-1.9c0.5-0.5,1.2-0.9,1.9-1.2s1.5-0.4,2.3-0.4s1.6,0.1,2.3,0.4c0.7,0.3,1.3,0.7,1.9,1.2
						c0.5,0.5,0.9,1.2,1.2,1.9S418.3,152.5,418.3,153.3z M417.1,153.3c0-0.7-0.1-1.3-0.3-1.9c-0.2-0.6-0.5-1.1-0.9-1.6
						c-0.4-0.4-0.9-0.8-1.5-1.1s-1.2-0.4-2-0.4s-1.4,0.1-2,0.4c-0.6,0.3-1.1,0.6-1.5,1.1c-0.4,0.4-0.7,1-0.9,1.6
						c-0.2,0.6-0.3,1.2-0.3,1.9s0.1,1.3,0.3,1.9c0.2,0.6,0.5,1.1,0.9,1.6c0.4,0.4,0.9,0.8,1.5,1.1c0.6,0.3,1.2,0.4,2,0.4
						s1.4-0.1,2-0.4s1.1-0.6,1.5-1.1c0.4-0.4,0.7-1,0.9-1.6C417,154.6,417.1,154,417.1,153.3z"/>
					<path class="st5" d="M421.8,159h-1.2v-11.3h3.5c1.2,0,2.1,0.3,2.7,0.8c0.7,0.5,1,1.3,1,2.3c0,0.8-0.2,1.5-0.7,2
						c-0.5,0.5-1.2,0.9-2.2,0.9l3.3,5.4h-1.4l-3.1-5.3h-1.9V159z M421.8,152.7h2c0.5,0,0.9-0.1,1.3-0.2c0.4-0.1,0.6-0.2,0.9-0.4
						c0.2-0.2,0.4-0.4,0.5-0.6c0.1-0.2,0.1-0.5,0.1-0.8c0-0.3,0-0.5-0.1-0.8c-0.1-0.2-0.2-0.5-0.5-0.6c-0.2-0.2-0.5-0.3-0.9-0.4
						s-0.8-0.2-1.3-0.2h-2V152.7z"/>
					<path class="st5" d="M435.7,157.9h5.3v1.1h-6.4v-11.3h1.2V157.9z"/>
					<path class="st5" d="M453.6,153.3c0,0.9-0.2,1.7-0.4,2.4c-0.3,0.7-0.7,1.4-1.2,1.9c-0.5,0.5-1.2,0.9-1.9,1.2s-1.5,0.4-2.3,0.4
						s-1.6-0.1-2.3-0.4c-0.7-0.3-1.3-0.7-1.9-1.2c-0.5-0.5-0.9-1.2-1.2-1.9c-0.3-0.7-0.4-1.5-0.4-2.4s0.1-1.7,0.4-2.4
						s0.7-1.4,1.2-1.9c0.5-0.5,1.2-0.9,1.9-1.2c0.7-0.3,1.5-0.4,2.3-0.4s1.6,0.1,2.3,0.4s1.3,0.7,1.9,1.2c0.5,0.5,0.9,1.2,1.2,1.9
						C453.4,151.7,453.6,152.5,453.6,153.3z M452.4,153.3c0-0.7-0.1-1.3-0.3-1.9c-0.2-0.6-0.5-1.1-0.9-1.6c-0.4-0.4-0.9-0.8-1.5-1.1
						s-1.2-0.4-2-0.4s-1.4,0.1-2,0.4s-1.1,0.6-1.5,1.1c-0.4,0.4-0.7,1-0.9,1.6c-0.2,0.6-0.3,1.2-0.3,1.9s0.1,1.3,0.3,1.9
						c0.2,0.6,0.5,1.1,0.9,1.6c0.4,0.4,0.9,0.8,1.5,1.1s1.2,0.4,2,0.4s1.4-0.1,2-0.4s1.1-0.6,1.5-1.1c0.4-0.4,0.7-1,0.9-1.6
						C452.2,154.6,452.4,154,452.4,153.3z"/>
					<path class="st5" d="M465.2,157.2c-0.2,0.3-0.4,0.6-0.7,0.8c-0.3,0.3-0.6,0.5-1,0.7s-0.8,0.3-1.2,0.4c-0.4,0.1-0.9,0.2-1.3,0.2
						c-0.8,0-1.6-0.1-2.3-0.4c-0.7-0.3-1.3-0.7-1.9-1.2c-0.5-0.5-0.9-1.2-1.2-1.9c-0.3-0.7-0.4-1.5-0.4-2.4s0.1-1.7,0.4-2.4
						s0.7-1.4,1.2-1.9c0.5-0.5,1.2-0.9,1.9-1.2c0.7-0.3,1.5-0.4,2.3-0.4c0.7,0,1.4,0.1,2.1,0.4c0.7,0.3,1.3,0.7,1.8,1.4l-1,0.8
						c-0.1-0.2-0.3-0.4-0.5-0.5c-0.2-0.2-0.4-0.3-0.7-0.5c-0.3-0.1-0.5-0.3-0.8-0.3c-0.3-0.1-0.6-0.1-0.9-0.1c-0.7,0-1.4,0.1-2,0.4
						s-1.1,0.6-1.5,1.1c-0.4,0.4-0.7,1-0.9,1.6c-0.2,0.6-0.3,1.2-0.3,1.9s0.1,1.3,0.3,1.9c0.2,0.6,0.5,1.1,0.9,1.6
						c0.4,0.4,0.9,0.8,1.5,1.1s1.2,0.4,2,0.4c0.3,0,0.6,0,0.9-0.1c0.3-0.1,0.6-0.1,0.9-0.3c0.3-0.1,0.5-0.3,0.8-0.5s0.5-0.5,0.7-0.8
						L465.2,157.2z"/>
				</g>
				<g class="st1">
					<path class="st5" d="M467,159h-1.3l4.9-11.3h1.1l4.9,11.3h-1.3l-1.2-3h-5.8L467,159z M468.7,155h4.9l-2.4-6L468.7,155z"/>
				</g>
				<g class="st1">
					<path class="st5" d="M480.7,159h-1.2v-10.3h-3.8v-1.1h8.7v1.1h-3.8V159z"/>
					<path class="st5" d="M487.4,159h-1.2v-11.3h1.2V159z"/>
					<path class="st5" d="M501.5,153.3c0,0.9-0.1,1.7-0.4,2.4c-0.3,0.7-0.7,1.4-1.2,1.9c-0.5,0.5-1.2,0.9-1.9,1.2
						c-0.7,0.3-1.5,0.4-2.3,0.4s-1.6-0.1-2.3-0.4s-1.3-0.7-1.9-1.2c-0.5-0.5-0.9-1.2-1.2-1.9c-0.3-0.7-0.4-1.5-0.4-2.4
						s0.1-1.7,0.4-2.4c0.3-0.7,0.7-1.4,1.2-1.9c0.5-0.5,1.2-0.9,1.9-1.2s1.5-0.4,2.3-0.4s1.6,0.1,2.3,0.4c0.7,0.3,1.3,0.7,1.9,1.2
						c0.5,0.5,0.9,1.2,1.2,1.9S501.5,152.5,501.5,153.3z M500.3,153.3c0-0.7-0.1-1.3-0.3-1.9c-0.2-0.6-0.5-1.1-0.9-1.6
						c-0.4-0.4-0.9-0.8-1.5-1.1s-1.2-0.4-2-0.4s-1.4,0.1-2,0.4c-0.6,0.3-1.1,0.6-1.5,1.1c-0.4,0.4-0.7,1-0.9,1.6
						c-0.2,0.6-0.3,1.2-0.3,1.9s0.1,1.3,0.3,1.9c0.2,0.6,0.5,1.1,0.9,1.6c0.4,0.4,0.9,0.8,1.5,1.1c0.6,0.3,1.2,0.4,2,0.4
						s1.4-0.1,2-0.4s1.1-0.6,1.5-1.1c0.4-0.4,0.7-1,0.9-1.6C500.2,154.6,500.3,154,500.3,153.3z"/>
					<path class="st5" d="M512,157.3L512,157.3l0-9.6h1.2V159h-1.4l-6.8-9.7h0v9.7h-1.2v-11.3h1.4L512,157.3z"/>
				</g>
			</g>
		</g>
		<g>
			<defs>
				<rect id="SVGID_13_" x="5" y="11" width="1157" height="531"/>
			</defs>
			<clipPath id="SVGID_14_">
				<use xlink:href="#SVGID_13_"  style="overflow:visible;"/>
			</clipPath>
			<g class="st11">
				<line class="st9" x1="557" y1="196.4" x2="557" y2="177.4"/>
				<line class="st9" x1="336" y1="196.4" x2="336" y2="177.4"/>
				<line class="st9" x1="446.5" y1="175.9" x2="446.5" y2="163.9"/>
				<line class="st9" x1="335.8" y1="176.8" x2="556.8" y2="176.2"/>
				<line class="st9" x1="535.6" y1="221.5" x2="535.6" y2="240.5"/>
				<line class="st9" x1="467.4" y1="221.5" x2="467.4" y2="240.5"/>
				<line class="st9" x1="502.1" y1="241.5" x2="502.1" y2="253.5"/>
				<line class="st9" x1="535.3" y1="240.5" x2="468.4" y2="240.5"/>
				<line class="st9" x1="561.8" y1="222" x2="561.8" y2="241"/>
				<line class="st9" x1="551.2" y1="222" x2="551.2" y2="241"/>
				<line class="st9" x1="556.6" y1="242" x2="556.6" y2="254"/>
				<line class="st9" x1="561.4" y1="241" x2="550.6" y2="241"/>
			</g>
		</g>
		<g>
			<defs>
				<rect id="SVGID_15_" x="601" y="350" width="106" height="51"/>
			</defs>
			<clipPath id="SVGID_16_">
				<use xlink:href="#SVGID_15_"  style="overflow:visible;"/>
			</clipPath>
			<g class="st12">
				<g class="st1">
					<path class="st5" d="M631,364.9h6.1v1.1h-7.2v-11.3h7v1.1H631v3.9h5.5v1.1H631V364.9z"/>
					<path class="st5" d="M640.5,366h-1.2v-11.3h3.5c1.2,0,2.1,0.3,2.7,0.8c0.7,0.5,1,1.3,1,2.3c0,0.8-0.2,1.5-0.7,2
						c-0.5,0.5-1.2,0.9-2.2,0.9l3.3,5.4h-1.4l-3.1-5.3h-1.9V366z M640.5,359.7h2c0.5,0,0.9-0.1,1.3-0.2c0.4-0.1,0.6-0.2,0.9-0.4
						c0.2-0.2,0.4-0.4,0.5-0.6c0.1-0.2,0.1-0.5,0.1-0.8c0-0.3,0-0.5-0.1-0.8c-0.1-0.2-0.2-0.5-0.5-0.6c-0.2-0.2-0.5-0.3-0.9-0.4
						s-0.8-0.2-1.3-0.2h-2V359.7z"/>
					<path class="st5" d="M650,366h-1.2v-11.3h3.5c1.2,0,2.1,0.3,2.7,0.8c0.7,0.5,1,1.3,1,2.3c0,0.8-0.2,1.5-0.7,2
						c-0.5,0.5-1.2,0.9-2.2,0.9l3.3,5.4H655l-3.1-5.3H650V366z M650,359.7h2c0.5,0,0.9-0.1,1.3-0.2c0.4-0.1,0.6-0.2,0.9-0.4
						c0.2-0.2,0.4-0.4,0.5-0.6c0.1-0.2,0.1-0.5,0.1-0.8c0-0.3,0-0.5-0.1-0.8c-0.1-0.2-0.3-0.5-0.5-0.6c-0.2-0.2-0.5-0.3-0.9-0.4
						s-0.8-0.2-1.3-0.2h-2V359.7z"/>
					<path class="st5" d="M669.4,360.3c0,0.9-0.2,1.7-0.4,2.4c-0.3,0.7-0.7,1.4-1.2,1.9c-0.5,0.5-1.2,0.9-1.9,1.2s-1.5,0.4-2.3,0.4
						s-1.6-0.1-2.3-0.4c-0.7-0.3-1.3-0.7-1.9-1.2c-0.5-0.5-0.9-1.2-1.2-1.9c-0.3-0.7-0.4-1.5-0.4-2.4s0.1-1.7,0.4-2.4
						s0.7-1.4,1.2-1.9c0.5-0.5,1.2-0.9,1.9-1.2c0.7-0.3,1.5-0.4,2.3-0.4s1.6,0.1,2.3,0.4s1.3,0.7,1.9,1.2c0.5,0.5,0.9,1.2,1.2,1.9
						C669.2,358.7,669.4,359.5,669.4,360.3z M668.1,360.3c0-0.7-0.1-1.3-0.3-1.9c-0.2-0.6-0.5-1.1-0.9-1.6c-0.4-0.4-0.9-0.8-1.5-1.1
						s-1.2-0.4-2-0.4s-1.4,0.1-2,0.4s-1.1,0.6-1.5,1.1c-0.4,0.4-0.7,1-0.9,1.6c-0.2,0.6-0.3,1.2-0.3,1.9s0.1,1.3,0.3,1.9
						c0.2,0.6,0.5,1.1,0.9,1.6c0.4,0.4,0.9,0.8,1.5,1.1s1.2,0.4,2,0.4s1.4-0.1,2-0.4s1.1-0.6,1.5-1.1c0.4-0.4,0.7-1,0.9-1.6
						C668,361.6,668.1,361,668.1,360.3z"/>
					<path class="st5" d="M672.8,366h-1.2v-11.3h3.5c1.2,0,2.1,0.3,2.7,0.8c0.7,0.5,1,1.3,1,2.3c0,0.8-0.2,1.5-0.7,2
						c-0.5,0.5-1.2,0.9-2.2,0.9l3.3,5.4h-1.4l-3.1-5.3h-1.9V366z M672.8,359.7h2c0.5,0,0.9-0.1,1.3-0.2c0.4-0.1,0.6-0.2,0.9-0.4
						c0.2-0.2,0.4-0.4,0.5-0.6c0.1-0.2,0.1-0.5,0.1-0.8c0-0.3,0-0.5-0.1-0.8c-0.1-0.2-0.3-0.5-0.5-0.6c-0.2-0.2-0.5-0.3-0.9-0.4
						s-0.8-0.2-1.3-0.2h-2V359.7z"/>
				</g>
				<g class="st1">
					<path class="st5" d="M623.9,385.9l3.8-9.2h1.8V388h-1.2v-9.8h0l-4.1,9.8h-0.6l-4.1-9.8h0v9.8h-1.2v-11.3h1.8L623.9,385.9z"/>
					<path class="st5" d="M633.7,386.9h6.1v1.1h-7.2v-11.3h7v1.1h-5.9v3.9h5.5v1.1h-5.5V386.9z"/>
					<path class="st5" d="M647.4,378.5c-0.5-0.7-1.2-1.1-2.2-1.1c-0.3,0-0.6,0-0.9,0.1c-0.3,0.1-0.5,0.2-0.8,0.4
						c-0.2,0.2-0.4,0.4-0.6,0.6c-0.1,0.3-0.2,0.6-0.2,0.9c0,0.5,0.1,0.9,0.4,1.2c0.3,0.3,0.6,0.5,1.1,0.7c0.4,0.2,0.9,0.3,1.4,0.5
						c0.5,0.1,1,0.3,1.4,0.6c0.4,0.2,0.8,0.6,1.1,1c0.3,0.4,0.4,0.9,0.4,1.6c0,0.5-0.1,1-0.3,1.4c-0.2,0.4-0.5,0.8-0.9,1
						s-0.8,0.5-1.2,0.6c-0.4,0.1-0.9,0.2-1.3,0.2c-0.7,0-1.4-0.1-2-0.4c-0.6-0.3-1.2-0.7-1.6-1.3l1.1-0.8c0.2,0.4,0.6,0.7,1,1
						c0.4,0.2,1,0.4,1.5,0.4c0.3,0,0.6,0,0.9-0.1c0.3-0.1,0.5-0.2,0.8-0.4c0.2-0.2,0.4-0.4,0.6-0.6c0.1-0.3,0.2-0.5,0.2-0.9
						c0-0.4-0.1-0.7-0.2-1c-0.2-0.3-0.4-0.5-0.7-0.7c-0.3-0.2-0.6-0.3-0.9-0.4s-0.7-0.2-1.1-0.4c-0.4-0.1-0.7-0.3-1.1-0.4
						c-0.3-0.1-0.7-0.3-0.9-0.6c-0.3-0.2-0.5-0.5-0.7-0.9c-0.2-0.3-0.2-0.8-0.2-1.3c0-0.5,0.1-1,0.3-1.4s0.5-0.7,0.8-1
						s0.7-0.5,1.2-0.6s0.9-0.2,1.3-0.2c0.6,0,1.2,0.1,1.7,0.3c0.5,0.2,1,0.6,1.5,1.1L647.4,378.5z"/>
					<path class="st5" d="M656.3,378.5c-0.5-0.7-1.2-1.1-2.2-1.1c-0.3,0-0.6,0-0.9,0.1c-0.3,0.1-0.5,0.2-0.8,0.4
						c-0.2,0.2-0.4,0.4-0.6,0.6c-0.1,0.3-0.2,0.6-0.2,0.9c0,0.5,0.1,0.9,0.4,1.2c0.3,0.3,0.6,0.5,1.1,0.7c0.4,0.2,0.9,0.3,1.4,0.5
						c0.5,0.1,1,0.3,1.4,0.6c0.4,0.2,0.8,0.6,1.1,1c0.3,0.4,0.4,0.9,0.4,1.6c0,0.5-0.1,1-0.3,1.4c-0.2,0.4-0.5,0.8-0.9,1
						s-0.8,0.5-1.2,0.6c-0.4,0.1-0.9,0.2-1.3,0.2c-0.7,0-1.4-0.1-2-0.4c-0.6-0.3-1.2-0.7-1.6-1.3l1.1-0.8c0.2,0.4,0.6,0.7,1,1
						c0.4,0.2,1,0.4,1.5,0.4c0.3,0,0.6,0,0.9-0.1c0.3-0.1,0.5-0.2,0.8-0.4c0.2-0.2,0.4-0.4,0.6-0.6c0.1-0.3,0.2-0.5,0.2-0.9
						c0-0.4-0.1-0.7-0.2-1c-0.2-0.3-0.4-0.5-0.7-0.7c-0.3-0.2-0.6-0.3-0.9-0.4s-0.7-0.2-1.1-0.4c-0.4-0.1-0.7-0.3-1.1-0.4
						c-0.3-0.1-0.7-0.3-0.9-0.6c-0.3-0.2-0.5-0.5-0.7-0.9c-0.2-0.3-0.2-0.8-0.2-1.3c0-0.5,0.1-1,0.3-1.4s0.5-0.7,0.8-1
						s0.7-0.5,1.2-0.6s0.9-0.2,1.3-0.2c0.6,0,1.2,0.1,1.7,0.3c0.5,0.2,1,0.6,1.5,1.1L656.3,378.5z"/>
					<path class="st5" d="M659.6,388h-1.3l4.9-11.3h1.1l4.9,11.3h-1.3l-1.2-3h-5.8L659.6,388z M661.3,384h4.9l-2.4-6L661.3,384z"/>
					<path class="st5" d="M679.2,378.8c-0.4-0.4-0.8-0.7-1.4-1s-1.2-0.4-1.9-0.4c-0.7,0-1.4,0.1-2,0.4c-0.6,0.3-1.1,0.6-1.5,1.1
						c-0.4,0.4-0.7,1-0.9,1.6c-0.2,0.6-0.3,1.2-0.3,1.9s0.1,1.3,0.3,1.9c0.2,0.6,0.5,1.1,0.9,1.6c0.4,0.4,0.9,0.8,1.5,1.1
						c0.6,0.3,1.2,0.4,2,0.4c0.6,0,1.1-0.1,1.7-0.2c0.5-0.1,1-0.3,1.4-0.6v-3.8h-2.7v-1.1h3.9v5.6c-0.6,0.4-1.3,0.7-2.1,0.9
						s-1.5,0.3-2.2,0.3c-0.8,0-1.6-0.1-2.3-0.4s-1.3-0.7-1.9-1.2c-0.5-0.5-0.9-1.2-1.2-1.9c-0.3-0.7-0.4-1.5-0.4-2.4
						s0.1-1.7,0.4-2.4c0.3-0.7,0.7-1.4,1.2-1.9c0.5-0.5,1.2-0.9,1.9-1.2s1.5-0.4,2.3-0.4c0.9,0,1.7,0.1,2.3,0.4
						c0.7,0.3,1.2,0.6,1.8,1.1L679.2,378.8z"/>
					<path class="st5" d="M684.4,386.9h6.1v1.1h-7.2v-11.3h7v1.1h-5.9v3.9h5.5v1.1h-5.5V386.9z"/>
				</g>
			</g>
		</g>
	</g>
</g>
</svg>
